<svg width="235" height="147" viewBox="0 0 235 147" fill="none" xmlns="http://www.w3.org/2000/svg">
<path d="M70.4833 146.887V138.687H73.3595C74.1563 138.633 74.9497 138.833 75.6254 139.259C75.8821 139.453 76.0869 139.708 76.2215 140C76.3562 140.292 76.4166 140.613 76.3973 140.934C76.4033 141.311 76.2941 141.681 76.0841 141.995C75.8736 142.303 75.5721 142.538 75.2215 142.667C75.6184 142.756 75.9715 142.982 76.2188 143.304C76.4672 143.643 76.595 144.056 76.5818 144.475C76.6049 144.813 76.5486 145.151 76.4175 145.462C76.2864 145.774 76.0841 146.05 75.8268 146.269C75.1998 146.713 74.4409 146.932 73.6737 146.889L70.4833 146.887ZM72.1787 143.316V145.53H73.6268C73.9617 145.55 74.2927 145.449 74.5593 145.246C74.671 145.149 74.7593 145.028 74.8173 144.892C74.8754 144.756 74.9017 144.608 74.8943 144.46C74.9133 144.304 74.896 144.145 74.8437 143.996C74.7914 143.847 74.7056 143.712 74.5928 143.602C74.48 143.491 74.3433 143.408 74.1933 143.359C74.0433 143.309 73.8839 143.295 73.7275 143.317L72.1787 143.316ZM72.1787 142.12H73.4293C74.2823 142.105 74.7088 141.765 74.7088 141.101C74.7229 140.951 74.7008 140.8 74.6444 140.66C74.588 140.521 74.499 140.397 74.3847 140.298C74.0781 140.111 73.7199 140.025 73.3615 140.053H72.1737L72.1787 142.12ZM89.2804 142.97C89.2963 143.701 89.1502 144.426 88.8526 145.093C88.5908 145.675 88.1622 146.166 87.6209 146.505C87.071 146.841 86.4365 147.014 85.7919 147.003C85.1511 147.013 84.5204 146.844 83.9718 146.513C83.4312 146.178 83.0002 145.693 82.7321 145.117C82.4285 144.462 82.2764 143.747 82.2873 143.024V142.613C82.272 141.878 82.4213 141.15 82.7242 140.481C82.9878 139.899 83.4172 139.407 83.9588 139.068C84.5076 138.734 85.1398 138.563 85.7819 138.575C86.424 138.563 87.0562 138.734 87.6049 139.068C88.1466 139.407 88.576 139.899 88.8396 140.481C89.1421 141.148 89.2913 141.874 89.2764 142.607L89.2804 142.97ZM87.5671 142.599C87.6114 141.914 87.4507 141.232 87.1053 140.639C86.9618 140.424 86.765 140.249 86.534 140.132C86.3031 140.014 86.0457 139.958 85.7869 139.97C85.5296 139.958 85.2738 140.014 85.0439 140.129C84.8139 140.245 84.6175 140.418 84.4734 140.631C84.1274 141.217 83.9645 141.893 84.0057 142.572V142.97C83.9661 143.651 84.1266 144.328 84.4674 144.919C84.6084 145.142 84.8055 145.324 85.0391 145.446C85.2726 145.568 85.5343 145.627 85.7978 145.617C86.0549 145.628 86.3105 145.572 86.5397 145.455C86.7688 145.338 86.9637 145.164 87.1053 144.949C87.4467 144.36 87.6073 143.683 87.5671 143.003V142.599ZM101.935 142.97C101.951 143.701 101.805 144.426 101.507 145.093C101.247 145.673 100.82 146.163 100.282 146.502C99.7318 146.838 99.0973 147.011 98.4526 147C97.8119 147.011 97.1811 146.841 96.6325 146.51C96.0919 146.175 95.661 145.69 95.3929 145.114C95.0892 144.459 94.9372 143.744 94.9481 143.021V142.613C94.9328 141.878 95.082 141.15 95.3849 140.481C95.6485 139.899 96.0779 139.407 96.6196 139.068C97.1683 138.734 97.8005 138.563 98.4426 138.575C99.0847 138.563 99.7169 138.734 100.266 139.068C100.805 139.408 101.232 139.9 101.493 140.482C101.796 141.149 101.945 141.875 101.93 142.608L101.935 142.97ZM100.217 142.602C100.261 141.917 100.1 141.235 99.7551 140.642C99.6115 140.427 99.4148 140.252 99.1838 140.135C98.9528 140.017 98.6955 139.961 98.4366 139.973C98.1794 139.961 97.9236 140.017 97.6936 140.132C97.4637 140.248 97.2673 140.421 97.1232 140.634C96.7772 141.22 96.6143 141.896 96.6555 142.575V142.973C96.6159 143.654 96.7764 144.331 97.1172 144.922C97.2581 145.145 97.4553 145.327 97.6888 145.449C97.9224 145.571 98.1841 145.63 98.4476 145.62C98.7047 145.631 98.9603 145.575 99.1894 145.458C99.4186 145.341 99.6135 145.167 99.7551 144.952C100.097 144.361 100.258 143.683 100.217 143.001V142.602ZM113.543 140.056H111.03V146.887H109.334V140.056H106.859V138.688H113.541L113.543 140.056ZM125.476 144.157C125.464 144.552 125.371 144.941 125.203 145.3C125.035 145.658 124.796 145.978 124.499 146.241C123.844 146.771 123.016 147.041 122.174 147.001C121.707 147.023 121.241 146.939 120.811 146.755C120.381 146.572 119.999 146.293 119.692 145.94C119.049 145.109 118.727 144.074 118.788 143.025V142.527C118.773 141.81 118.915 141.099 119.204 140.443C119.456 139.873 119.873 139.392 120.401 139.061C120.943 138.733 121.568 138.566 122.201 138.579C123.032 138.54 123.848 138.811 124.489 139.34C125.09 139.893 125.451 140.659 125.492 141.474H123.797C123.798 141.049 123.64 140.638 123.354 140.322C123.028 140.06 122.614 139.932 122.196 139.965C121.951 139.949 121.706 139.996 121.485 140.102C121.263 140.208 121.072 140.369 120.931 140.57C120.608 141.141 120.459 141.794 120.5 142.448V143.068C120.45 143.74 120.588 144.413 120.899 145.012C121.038 145.217 121.229 145.381 121.452 145.489C121.675 145.597 121.922 145.644 122.169 145.626C122.591 145.659 123.009 145.531 123.339 145.268C123.622 144.969 123.781 144.573 123.782 144.161L125.476 144.157ZM135.905 145.198H132.941L132.378 146.892H130.583L133.637 138.692H135.204L138.276 146.892H136.481L135.905 145.198ZM133.397 143.83H135.448L134.417 140.76L133.397 143.83ZM145.934 138.688L148.041 144.635L150.136 138.688H152.356V146.888H150.66V144.646L150.83 140.777L148.617 146.887H147.459L145.247 140.783L145.417 144.646V146.887H143.721V138.687L145.934 138.688ZM160.212 143.998V146.888H158.517V138.688H161.718C162.279 138.676 162.835 138.792 163.344 139.026C163.791 139.232 164.166 139.566 164.423 139.985C164.678 140.413 164.809 140.904 164.801 141.402C164.818 141.761 164.752 142.118 164.609 142.448C164.466 142.777 164.249 143.07 163.975 143.302C163.322 143.8 162.511 144.048 161.69 144L160.212 143.998ZM160.212 142.63H161.72C162.089 142.655 162.454 142.543 162.744 142.315C162.864 142.2 162.958 142.06 163.018 141.905C163.079 141.75 163.106 141.584 163.096 141.418C163.104 141.24 163.076 141.062 163.015 140.895C162.954 140.728 162.861 140.574 162.741 140.443C162.612 140.316 162.459 140.216 162.29 140.15C162.121 140.084 161.941 140.054 161.76 140.06H160.21L160.212 142.63Z" fill="black"/>
<path d="M117.2 70.8578C116.977 70.8586 116.755 70.8249 116.542 70.7582L92.3271 63.0839C91.9132 62.9541 91.5478 62.7032 91.2781 62.3636C91.0084 62.0241 90.8468 61.6115 90.8142 61.1792L86.2127 2.34615C86.1893 2.04696 86.2281 1.74618 86.3266 1.46269C86.4251 1.17919 86.5812 0.91912 86.7851 0.698799C86.989 0.478477 87.2362 0.302667 87.5114 0.182411C87.7865 0.0621552 88.0835 5.13414e-05 88.3838 0H146.016C146.316 5.13414e-05 146.613 0.0621552 146.888 0.182411C147.163 0.302667 147.411 0.478477 147.615 0.698799C147.818 0.91912 147.975 1.17919 148.073 1.46269C148.172 1.74618 148.21 2.04696 148.187 2.34615L143.585 61.1792C143.553 61.6116 143.392 62.0243 143.122 62.3639C142.852 62.7035 142.487 62.9543 142.073 63.0839L117.858 70.7582C117.645 70.825 117.423 70.8586 117.2 70.8578ZM106.85 42.3951C106.768 42.395 106.687 42.4085 106.61 42.435L106.495 42.4928C106.034 42.6438 105.618 42.9076 105.285 43.2603C104.952 43.613 104.713 44.0433 104.589 44.512L102.221 53.168C102.207 53.2062 102.202 53.2472 102.206 53.2877C102.211 53.3282 102.225 53.367 102.248 53.401C102.27 53.4349 102.301 53.4629 102.336 53.4827C102.372 53.5025 102.412 53.5136 102.453 53.5149C102.474 53.5183 102.495 53.52 102.517 53.5199C102.596 53.52 102.673 53.4983 102.741 53.4571L109.323 47.3974C109.663 47.0624 109.923 46.6548 110.083 46.2052C110.243 45.7555 110.299 45.2754 110.247 44.8011L110.074 44.6276C110.054 44.5082 110.007 44.3947 109.939 44.295C109.87 44.1953 109.78 44.1119 109.675 44.0506C109.243 43.8718 108.836 43.6395 108.462 43.3589C108.062 43.1128 107.676 42.8432 107.308 42.5516C107.177 42.4496 107.016 42.3945 106.85 42.3951ZM106.95 34.9112C106.938 34.9112 106.926 34.9133 106.915 34.9171C106.898 34.9231 106.883 34.933 106.87 34.946C106.858 34.959 106.849 34.9747 106.844 34.9919V35.0497C106.856 35.2818 106.836 35.5144 106.786 35.7414C106.777 35.8229 106.798 35.9047 106.844 35.9726L107.941 37.7616C108.003 37.8537 108.045 37.9577 108.065 38.0669C108.085 38.1762 108.082 38.2884 108.057 38.3965L107.307 41.3974C107.255 41.4971 107.293 41.6147 107.422 41.7443C107.885 42.1419 108.388 42.4899 108.923 42.7828C109.43 43.1271 109.972 43.4171 110.54 43.6479C110.582 43.6733 110.63 43.6867 110.678 43.6868C110.718 43.6864 110.757 43.6773 110.793 43.66C110.829 43.6428 110.861 43.6179 110.886 43.5871L113.196 41.5101C113.273 41.4399 113.365 41.3879 113.465 41.3578C113.565 41.3278 113.67 41.3206 113.773 41.3366L115.852 41.5101H115.887C115.958 41.5109 116.028 41.49 116.087 41.4503L116.722 41.1044C116.703 41.0625 116.693 41.0176 116.69 40.9719C116.683 40.9071 116.677 40.8503 116.607 40.8154C115.701 40.2483 111.852 37.8952 111.814 37.8712H111.809C111.41 37.6281 107.895 35.4793 107.022 34.9321C107 34.9155 106.972 34.9081 106.944 34.9112H106.95ZM119.229 33.8946C119.426 33.8944 119.617 33.955 119.778 34.068L123.3 36.2028C123.358 36.2291 123.42 36.2424 123.483 36.2417C123.525 36.2468 123.569 36.2403 123.608 36.2227C123.647 36.2052 123.681 36.1773 123.705 36.142L132.366 24.3704C132.496 24.2366 132.592 24.0731 132.646 23.8939C132.699 23.7146 132.707 23.5252 132.671 23.3419C132.625 23.2269 132.552 23.1243 132.459 23.0424C132.366 22.9606 132.255 22.9017 132.135 22.8705H132.078L129.998 22.5814C129.94 22.5814 129.94 22.5814 129.883 22.5236C129.853 22.5083 129.826 22.4859 129.806 22.4584C129.786 22.4309 129.772 22.399 129.767 22.3654C129.761 22.3317 129.764 22.2971 129.774 22.2645C129.784 22.2319 129.802 22.2022 129.826 22.1778C130.566 21.21 132.634 18.3974 132.655 18.3695C132.71 18.3234 132.753 18.2659 132.784 18.2011C132.814 18.1363 132.829 18.0657 132.829 17.9943C132.829 17.9228 132.814 17.8522 132.784 17.7874C132.753 17.7226 132.71 17.6652 132.655 17.619C132.52 17.5091 132.362 17.4305 132.193 17.3888L128.092 16.7559C127.908 16.7286 127.719 16.7511 127.547 16.8212C127.374 16.8913 127.223 17.0065 127.11 17.1546L124.916 20.1565C124.758 20.3641 124.687 20.6253 124.72 20.8841C124.752 21.1429 124.885 21.3787 125.089 21.5409C125.097 21.5398 125.106 21.5413 125.113 21.545C125.12 21.5488 125.126 21.5546 125.129 21.5618C125.139 21.5848 125.123 21.6226 125.089 21.6615C125.089 21.6615 125.063 21.6874 125.047 21.6874C125.044 21.6875 125.042 21.687 125.04 21.686C125.038 21.6849 125.037 21.6833 125.036 21.6814C125.034 21.6749 125.034 21.668 125.036 21.6615L123.939 21.4891L122.308 21.3147C122.1 21.285 121.889 21.3123 121.696 21.3936C121.502 21.4749 121.335 21.6071 121.211 21.7761L114.689 30.6634C114.673 30.6938 114.651 30.7201 114.623 30.7404C114.596 30.7606 114.564 30.7742 114.53 30.78H114.494C114.437 30.7801 114.383 30.7579 114.343 30.7182L108.107 26.9099C108.013 26.8531 107.908 26.8156 107.798 26.7994C107.689 26.7831 107.578 26.7886 107.471 26.8155C107.363 26.8423 107.263 26.89 107.174 26.9558C107.085 27.0216 107.01 27.1042 106.954 27.199C106.851 27.4081 106.83 27.6475 106.894 27.8712C106.958 28.0949 107.102 28.2872 107.3 28.4109L107.473 28.5265C107.508 28.5541 107.537 28.5891 107.557 28.6291C107.577 28.6691 107.587 28.7131 107.588 28.7577L107.415 30.0265C107.417 30.0602 107.406 30.0933 107.384 30.119C107.362 30.1446 107.331 30.1607 107.298 30.164C107.287 30.1642 107.277 30.1622 107.267 30.1583C107.258 30.1544 107.249 30.1485 107.242 30.1411H107.184L106.26 29.6219C106.087 29.5122 105.893 29.4385 105.691 29.4052C105.488 29.372 105.281 29.3798 105.082 29.4283C104.883 29.4767 104.695 29.5648 104.531 29.6873C104.366 29.8098 104.228 29.9641 104.124 30.1411C104.005 30.2806 103.915 30.4424 103.859 30.6171C103.803 30.7919 103.782 30.976 103.799 31.1588C103.815 31.3415 103.867 31.5192 103.953 31.6814C104.039 31.8436 104.156 31.9872 104.298 32.1035C104.378 32.1565 104.455 32.2144 104.528 32.277L109.206 35.1613C109.953 35.6705 110.842 35.9284 111.745 35.8974C112.649 35.8664 113.518 35.5481 114.228 34.9889C114.559 34.677 114.985 34.4853 115.438 34.4447C115.77 34.4558 116.093 34.5647 116.364 34.7577C116.536 34.8707 116.737 34.9309 116.942 34.9309C117.147 34.9309 117.348 34.8707 117.52 34.7577L118.675 34.065C118.835 33.9528 119.027 33.8929 119.222 33.8936L119.229 33.8946Z" fill="black"/>
<path d="M6.35372 118.597H19.8442V123.698H-0.0020752V92.8831H6.35173L6.35372 118.597ZM36.3645 123.698C36.0523 123.05 35.845 122.357 35.7502 121.645C35.0271 122.457 34.134 123.1 33.1343 123.528C32.1346 123.956 31.0528 124.159 29.9658 124.122C27.9256 124.196 25.9321 123.501 24.3809 122.174C23.6697 121.572 23.102 120.818 22.7192 119.969C22.3363 119.119 22.148 118.195 22.1679 117.264C22.1137 116.181 22.3326 115.102 22.8045 114.125C23.2764 113.149 23.9861 112.307 24.8686 111.676C26.6691 110.378 29.2707 109.722 32.6735 109.708H35.4899V108.395C35.5363 107.478 35.2463 106.575 34.6741 105.856C34.3424 105.517 33.9396 105.255 33.4946 105.09C33.0497 104.926 32.5737 104.862 32.101 104.903C31.2299 104.852 30.3694 105.115 29.6756 105.643C29.3838 105.893 29.153 106.206 29.0007 106.558C28.8484 106.91 28.7787 107.292 28.797 107.676H22.6765C22.676 106.346 23.1072 105.052 23.9052 103.988C24.7982 102.802 25.9997 101.883 27.3788 101.332C28.9755 100.67 30.6909 100.343 32.4192 100.369C34.8445 100.239 37.2345 100.995 39.143 102.496C39.9827 103.24 40.6432 104.165 41.075 105.201C41.5067 106.236 41.6986 107.356 41.6362 108.476V118.403C41.5539 120.095 41.8656 121.783 42.5468 123.334V123.694L36.3645 123.698ZM31.3032 119.444C32.1733 119.452 33.0319 119.245 33.8024 118.841C34.5181 118.485 35.1091 117.92 35.4978 117.222V113.285H33.21C30.1463 113.285 28.5154 114.343 28.3173 116.459L28.2963 116.819C28.2865 117.172 28.3533 117.524 28.4922 117.849C28.6311 118.174 28.8389 118.465 29.1011 118.703C29.7123 119.223 30.5004 119.489 31.3022 119.444H31.3032ZM60.0643 121.37C59.3036 122.282 58.3415 123.005 57.2537 123.483C56.1659 123.96 54.982 124.179 53.7953 124.122C52.7611 124.192 51.7238 124.039 50.7538 123.674C49.7837 123.308 48.9035 122.739 48.1725 122.005C46.88 120.597 46.2192 118.531 46.1899 115.806V100.798H52.3103V115.592C52.3103 117.977 53.3974 119.169 55.5715 119.169C57.6472 119.169 59.0734 118.45 59.8499 117.01V100.798H65.9913V123.698H60.2309L60.0643 121.37ZM76.2445 100.797L76.435 103.443C77.2121 102.449 78.2136 101.652 79.3576 101.119C80.5016 100.586 81.7556 100.33 83.0172 100.374C84.024 100.296 85.0354 100.447 85.9748 100.818C86.9141 101.188 87.7567 101.768 88.4385 102.512C89.6247 103.937 90.2317 106.068 90.2596 108.904V123.698H84.1392V109.047C84.2306 108.031 83.9274 107.02 83.2925 106.221C82.9056 105.894 82.457 105.648 81.9733 105.497C81.4895 105.347 80.9804 105.294 80.4761 105.343C79.6887 105.311 78.908 105.5 78.2229 105.89C77.5378 106.279 76.9757 106.852 76.6006 107.545V123.691H70.4801V100.798L76.2445 100.797ZM104.432 119.195C105.434 119.239 106.417 118.907 107.186 118.264C107.535 117.954 107.814 117.572 108.004 117.145C108.193 116.718 108.288 116.255 108.283 115.787H114.022C114.019 117.302 113.578 118.783 112.752 120.052C111.911 121.35 110.727 122.391 109.331 123.058C107.837 123.781 106.194 124.147 104.534 124.127C103.093 124.199 101.653 123.958 100.315 123.419C98.9761 122.88 97.7711 122.056 96.783 121.005C94.8907 118.924 93.9446 116.049 93.9446 112.38V111.981C93.7869 108.912 94.7925 105.897 96.761 103.536C97.739 102.476 98.9386 101.644 100.274 101.099C101.61 100.554 103.05 100.31 104.491 100.383C107.021 100.261 109.497 101.139 111.384 102.828C112.255 103.668 112.939 104.682 113.393 105.803C113.847 106.924 114.061 108.127 114.021 109.336H108.282C108.3 108.268 107.908 107.233 107.185 106.446C106.824 106.075 106.388 105.784 105.907 105.592C105.426 105.401 104.91 105.313 104.392 105.334C103.766 105.298 103.141 105.422 102.575 105.694C102.01 105.966 101.524 106.378 101.162 106.89C100.435 107.927 100.071 109.61 100.071 111.938V112.573C100.071 114.929 100.431 116.624 101.151 117.656C101.522 118.17 102.018 118.581 102.592 118.85C103.166 119.119 103.8 119.238 104.432 119.195ZM123.494 103.3C124.22 102.375 125.15 101.63 126.212 101.124C127.273 100.617 128.438 100.362 129.614 100.379C134.584 100.379 137.104 103.265 137.175 109.036V123.704H131.054V109.201C131.139 108.159 130.838 107.124 130.207 106.29C129.831 105.944 129.385 105.681 128.9 105.519C128.415 105.356 127.9 105.298 127.391 105.348C126.612 105.295 125.834 105.46 125.145 105.827C124.456 106.194 123.884 106.747 123.495 107.422V123.699H117.374V91.1888H123.495L123.494 103.3ZM142.195 123.704V92.8831H152.996C156.738 92.8831 159.576 93.5991 161.51 95.0309C162.475 95.7608 163.244 96.7174 163.75 97.8159C164.257 98.9143 164.483 100.121 164.411 101.328C164.437 102.744 164.031 104.135 163.246 105.315C162.457 106.475 161.324 107.359 160.006 107.844C161.494 108.179 162.817 109.026 163.744 110.236C164.678 111.51 165.159 113.06 165.11 114.638C165.196 115.904 164.984 117.171 164.492 118.34C164 119.509 163.241 120.547 162.276 121.371C160.383 122.895 157.687 123.671 154.186 123.699L142.195 123.704ZM148.549 110.285V118.597H153.992C155.251 118.673 156.495 118.294 157.498 117.529C157.918 117.164 158.25 116.709 158.468 116.198C158.687 115.686 158.786 115.132 158.758 114.577C158.758 111.755 157.296 110.322 154.37 110.28L148.549 110.285ZM148.549 105.8H153.25C156.455 105.743 158.058 104.466 158.058 101.969C158.111 101.405 158.028 100.837 157.816 100.313C157.604 99.788 157.27 99.3217 156.84 98.9528C155.688 98.2486 154.343 97.9263 152.997 98.0319H148.549V105.8ZM182.756 123.706C182.444 123.058 182.237 122.365 182.142 121.653C181.419 122.465 180.526 123.108 179.526 123.536C178.526 123.964 177.445 124.167 176.358 124.13C174.317 124.204 172.324 123.508 170.773 122.182C170.06 121.579 169.492 120.824 169.109 119.974C168.726 119.123 168.538 118.197 168.559 117.265C168.504 116.182 168.723 115.103 169.195 114.126C169.667 113.15 170.377 112.308 171.259 111.677C173.06 110.379 175.661 109.723 179.064 109.709H181.881V108.396C181.927 107.479 181.637 106.576 181.065 105.857C180.733 105.518 180.33 105.256 179.885 105.091C179.44 104.927 178.965 104.863 178.492 104.904C177.621 104.853 176.76 105.116 176.066 105.644C175.775 105.894 175.544 106.207 175.391 106.559C175.239 106.911 175.17 107.293 175.188 107.677H169.067C169.067 106.347 169.498 105.053 170.296 103.989C171.189 102.803 172.39 101.884 173.77 101.333C175.366 100.671 177.082 100.344 178.81 100.37C181.235 100.24 183.625 100.996 185.534 102.497C186.374 103.241 187.034 104.166 187.466 105.202C187.897 106.237 188.089 107.357 188.027 108.477V118.404C187.945 120.096 188.256 121.784 188.938 123.335V123.695L182.756 123.706ZM177.695 119.452C178.565 119.46 179.424 119.253 180.194 118.849C180.91 118.493 181.501 117.928 181.89 117.23V113.293H179.602C176.538 113.293 174.907 114.351 174.709 116.467L174.688 116.827C174.678 117.18 174.745 117.532 174.884 117.857C175.023 118.182 175.231 118.473 175.493 118.711C176.104 119.227 176.891 119.49 177.69 119.444L177.695 119.452ZM205.143 117.378C205.142 117.008 205.037 116.645 204.839 116.332C204.641 116.019 204.36 115.768 204.026 115.607C202.9 115.047 201.698 114.659 200.457 114.454C195.005 113.311 192.279 110.997 192.279 107.512C192.272 106.525 192.498 105.55 192.937 104.665C193.377 103.781 194.019 103.013 194.811 102.422C196.711 100.992 199.052 100.269 201.429 100.38C203.922 100.252 206.384 100.976 208.41 102.433C209.24 103.049 209.911 103.854 210.367 104.782C210.822 105.711 211.048 106.734 211.026 107.767H204.905C204.918 107.367 204.85 106.969 204.704 106.596C204.559 106.223 204.339 105.883 204.059 105.598C203.697 105.286 203.276 105.049 202.821 104.902C202.367 104.755 201.887 104.7 201.411 104.74C200.556 104.686 199.709 104.933 199.017 105.438C198.748 105.649 198.531 105.919 198.384 106.227C198.237 106.536 198.164 106.874 198.171 107.216C198.171 107.55 198.261 107.878 198.43 108.167C198.599 108.455 198.842 108.693 199.134 108.857C200.147 109.402 201.247 109.768 202.385 109.936C203.694 110.181 204.982 110.524 206.24 110.963C209.473 112.148 211.09 114.201 211.09 117.122C211.103 118.125 210.863 119.115 210.392 120.001C209.922 120.887 209.235 121.64 208.397 122.191C206.346 123.557 203.913 124.236 201.451 124.128C199.691 124.161 197.946 123.81 196.335 123.101C194.937 122.491 193.727 121.519 192.83 120.286C192.007 119.166 191.562 117.813 191.559 116.423H197.363C197.363 116.904 197.471 117.378 197.68 117.81C197.889 118.243 198.193 118.622 198.569 118.921C199.446 119.539 200.506 119.845 201.577 119.789C202.512 119.853 203.442 119.62 204.235 119.122C204.519 118.928 204.75 118.666 204.908 118.36C205.065 118.054 205.144 117.714 205.138 117.37L205.143 117.378ZM225.58 124.13C224.075 124.19 222.573 123.948 221.163 123.417C219.754 122.886 218.465 122.078 217.374 121.04C216.303 119.96 215.469 118.67 214.923 117.252C214.377 115.833 214.131 114.317 214.202 112.798V112.205C214.166 110.075 214.622 107.964 215.537 106.039C216.359 104.303 217.673 102.847 219.317 101.853C221.007 100.856 222.94 100.347 224.902 100.382C226.277 100.311 227.651 100.539 228.929 101.051C230.207 101.562 231.358 102.345 232.304 103.345C234.105 105.32 235.005 108.121 235.005 111.748V114.246H220.408C220.546 115.623 221.183 116.902 222.198 117.844C223.238 118.762 224.591 119.246 225.978 119.195C227.038 119.243 228.093 119.035 229.055 118.589C230.018 118.143 230.858 117.473 231.506 116.634L234.513 119.992C233.564 121.318 232.279 122.367 230.79 123.032C229.153 123.774 227.373 124.146 225.575 124.122L225.58 124.13ZM224.882 105.334C224.33 105.314 223.781 105.414 223.271 105.626C222.761 105.838 222.303 106.157 221.928 106.562C221.097 107.558 220.59 108.784 220.477 110.076H228.985V109.589C229.033 108.44 228.64 107.316 227.888 106.446C227.492 106.059 227.02 105.76 226.501 105.567C225.982 105.375 225.429 105.293 224.876 105.327L224.882 105.334Z" fill="black"/>
</svg>
