<svg width="133" height="141" viewBox="0 0 133 141" fill="none" xmlns="http://www.w3.org/2000/svg">
<path d="M37.787 138.111C37.7743 138.512 37.6796 138.906 37.5086 139.27C37.3376 139.633 37.094 139.957 36.7928 140.223C36.1288 140.76 35.2901 141.035 34.4366 140.994C33.963 141.017 33.4905 140.932 33.0546 140.745C32.6187 140.559 32.2308 140.276 31.9204 139.918C31.2698 139.075 30.946 138.026 31.0087 136.963V136.455C30.9937 135.729 31.1379 135.008 31.4312 134.343C31.6854 133.766 32.106 133.278 32.6392 132.942C33.1888 132.609 33.822 132.44 34.4645 132.454C35.3066 132.414 36.1336 132.689 36.7839 133.225C37.3912 133.784 37.7555 134.559 37.7989 135.383H36.085C36.0858 134.952 35.926 134.536 35.6366 134.216C35.306 133.949 34.8859 133.819 34.4625 133.853C34.214 133.837 33.9656 133.885 33.7411 133.993C33.5165 134.1 33.3234 134.264 33.18 134.467C32.8531 135.046 32.7012 135.707 32.7425 136.371V136.999C32.6929 137.68 32.8344 138.362 33.1512 138.968C33.2926 139.176 33.4866 139.344 33.7136 139.453C33.9406 139.562 34.1924 139.609 34.4436 139.59C34.8703 139.623 35.2938 139.494 35.6286 139.227C35.9157 138.924 36.0761 138.523 36.077 138.106L37.787 138.111ZM50.5125 132.567V138.042C50.5326 138.442 50.4668 138.841 50.3195 139.214C50.1722 139.586 49.9468 139.922 49.6585 140.2C49.0131 140.757 48.1766 141.042 47.3252 140.995C46.4842 141.04 45.6575 140.764 45.0117 140.224C44.7226 139.954 44.495 139.626 44.3442 139.26C44.1934 138.895 44.123 138.501 44.1378 138.107V132.567H45.8518V138.053C45.8324 138.268 45.8571 138.484 45.9244 138.689C45.9918 138.895 46.1004 139.084 46.2435 139.245C46.5409 139.508 46.9301 139.642 47.3262 139.619C48.2899 139.619 48.7793 139.113 48.7946 138.101V132.567H50.5125ZM60.3042 137.833H58.9451V140.88H57.2312V132.567H60.3211C61.1323 132.515 61.9364 132.747 62.5948 133.224C62.8618 133.451 63.0725 133.736 63.2105 134.058C63.3485 134.38 63.41 134.729 63.3901 135.079C63.4083 135.578 63.2801 136.071 63.0213 136.498C62.7453 136.902 62.3572 137.216 61.9048 137.403L63.7043 140.799V140.879H61.865L60.3042 137.833ZM58.9392 136.442H60.3211C60.6839 136.465 61.0416 136.348 61.3202 136.114C61.4405 135.998 61.5343 135.856 61.5953 135.7C61.6564 135.544 61.6833 135.377 61.6741 135.209C61.6836 135.04 61.6589 134.872 61.6015 134.713C61.5441 134.554 61.4552 134.408 61.3401 134.284C61.2003 134.163 61.0376 134.07 60.8616 134.012C60.6856 133.955 60.4998 133.932 60.3151 133.947H58.9451L58.9392 136.442ZM74.3121 138.692C74.32 138.549 74.2928 138.407 74.233 138.277C74.1733 138.147 74.0827 138.034 73.9692 137.947C73.5879 137.703 73.1719 137.518 72.7354 137.398C72.2495 137.25 71.7775 137.06 71.3246 136.83C70.9169 136.659 70.5668 136.375 70.3161 136.011C70.0655 135.647 69.9248 135.219 69.9109 134.777C69.9052 134.346 70.0384 133.925 70.2907 133.576C70.5704 133.204 70.9494 132.918 71.3843 132.751C71.8913 132.546 72.4342 132.445 72.9809 132.453C73.5284 132.443 74.0715 132.553 74.5716 132.776C75.0118 132.97 75.3874 133.286 75.6543 133.686C75.9127 134.083 76.047 134.548 76.04 135.021H74.3261C74.3354 134.856 74.3079 134.691 74.2457 134.537C74.1835 134.384 74.088 134.246 73.9662 134.134C73.6799 133.907 73.3197 133.794 72.9551 133.817C72.6094 133.796 72.2664 133.889 71.9788 134.082C71.8689 134.162 71.7798 134.266 71.7192 134.387C71.6586 134.509 71.6283 134.643 71.6309 134.778C71.6342 134.917 71.6736 135.053 71.7452 135.172C71.8169 135.291 71.9183 135.389 72.0395 135.458C72.4137 135.685 72.8184 135.858 73.2414 135.971C74.0271 136.165 74.7566 136.539 75.3719 137.064C75.59 137.273 75.7621 137.525 75.8771 137.805C75.9921 138.084 76.0476 138.384 76.04 138.686C76.0524 139.013 75.9844 139.338 75.8419 139.632C75.6994 139.927 75.4869 140.182 75.2228 140.375C74.5765 140.814 73.8042 141.03 73.0237 140.989C72.4221 140.999 71.8254 140.88 71.2729 140.642C70.7893 140.442 70.3725 140.108 70.071 139.68C69.7902 139.262 69.6445 138.768 69.6534 138.265H71.3724C71.3724 139.182 71.9208 139.641 73.0177 139.641C73.3538 139.66 73.6874 139.573 73.9711 139.392C74.0818 139.315 74.1712 139.21 74.2311 139.089C74.291 138.968 74.3196 138.834 74.3141 138.699L74.3121 138.692ZM89.3302 136.903C89.3477 137.645 89.2003 138.381 88.8987 139.059C88.6354 139.649 88.2034 140.147 87.657 140.491C87.0996 140.831 86.4568 141.006 85.8039 140.994C85.1543 141.005 84.5149 140.833 83.9587 140.497C83.4115 140.157 82.976 139.663 82.706 139.078C82.3982 138.414 82.2439 137.69 82.2546 136.958V136.547C82.2383 135.804 82.3881 135.067 82.6931 134.389C82.96 133.799 83.395 133.301 83.9438 132.957C84.5004 132.62 85.1413 132.447 85.7919 132.46C86.4426 132.447 87.0835 132.62 87.6401 132.957C88.1885 133.301 88.6232 133.8 88.8898 134.389C89.1963 135.066 89.3474 135.802 89.3322 136.545L89.3302 136.903ZM87.5934 136.527C87.6385 135.833 87.4755 135.141 87.1251 134.539C86.9786 134.322 86.7786 134.147 86.5444 134.029C86.3102 133.912 86.0497 133.856 85.788 133.869C85.5272 133.858 85.268 133.913 85.0349 134.031C84.8019 134.148 84.6028 134.323 84.4567 134.539C84.1061 135.133 83.941 135.818 83.9825 136.506V136.911C83.9424 137.601 84.1052 138.288 84.4508 138.887C84.5942 139.111 84.7942 139.295 85.0308 139.418C85.2674 139.541 85.5323 139.6 85.7989 139.589C86.0595 139.6 86.3186 139.544 86.5508 139.425C86.7831 139.307 86.9806 139.13 87.1241 138.912C87.4703 138.315 87.6331 137.629 87.5924 136.94L87.5934 136.527ZM100.204 138.699C100.211 138.556 100.184 138.414 100.124 138.284C100.065 138.154 99.9741 138.04 99.8606 137.954C99.4793 137.71 99.0633 137.525 98.6268 137.405C98.1409 137.257 97.6689 137.067 97.216 136.837C96.8059 136.667 96.4537 136.382 96.2016 136.016C95.9496 135.651 95.8085 135.221 95.7954 134.777C95.7897 134.346 95.9228 133.925 96.1751 133.576C96.4549 133.204 96.8339 132.918 97.2687 132.751C97.7758 132.546 98.3186 132.445 98.8654 132.453C99.4129 132.443 99.9559 132.553 100.456 132.776C100.896 132.97 101.272 133.286 101.539 133.686C101.797 134.083 101.931 134.548 101.924 135.021H100.204C100.213 134.856 100.185 134.691 100.123 134.537C100.061 134.384 99.9655 134.246 99.8437 134.134C99.5574 133.907 99.1972 133.794 98.8326 133.817C98.4869 133.796 98.1439 133.889 97.8563 134.082C97.7464 134.162 97.6573 134.266 97.5967 134.387C97.5361 134.509 97.5058 134.643 97.5083 134.778C97.5117 134.917 97.5511 135.053 97.6227 135.172C97.6943 135.291 97.7957 135.389 97.9169 135.458C98.2912 135.685 98.6959 135.858 99.1189 135.971C99.9046 136.165 100.634 136.539 101.249 137.064C101.467 137.273 101.64 137.525 101.755 137.805C101.87 138.084 101.925 138.384 101.918 138.686C101.93 139.013 101.862 139.338 101.719 139.632C101.577 139.927 101.364 140.182 101.1 140.375C100.454 140.814 99.6816 141.03 98.9012 140.989C98.3003 140.997 97.7046 140.877 97.1534 140.638C96.6697 140.438 96.2529 140.104 95.9514 139.676C95.6729 139.259 95.5286 138.766 95.5379 138.265H97.2568C97.2568 139.182 97.8053 139.641 98.9022 139.641C99.2382 139.66 99.5718 139.573 99.8556 139.392C99.9672 139.315 100.058 139.211 100.118 139.09C100.179 138.969 100.208 138.834 100.204 138.699Z" fill="black"/>
<path d="M17.2378 109.809C17.2665 109.281 17.1662 108.755 16.9455 108.275C16.7248 107.796 16.3904 107.377 15.9712 107.055C14.5619 106.154 13.0244 105.471 11.4109 105.029C9.61509 104.482 7.87033 103.78 6.19648 102.93C2.70558 101.045 0.960138 98.5056 0.960138 95.3128C0.938897 93.7201 1.43109 92.1629 2.36392 90.8714C3.39508 89.4969 4.79248 88.4402 6.39631 87.822C8.27106 87.0688 10.2774 86.6972 12.2978 86.7291C14.3166 86.6934 16.3188 87.1004 18.1634 87.9214C19.7902 88.6399 21.178 89.8074 22.164 91.2868C23.1201 92.7528 23.6174 94.4703 23.5926 96.22H17.2577C17.292 95.6092 17.1905 94.9984 16.9605 94.4315C16.7305 93.8645 16.3777 93.3556 15.9275 92.9411C14.8693 92.1028 13.5381 91.6856 12.1904 91.7696C10.9121 91.6922 9.64372 92.0368 8.58052 92.7503C8.17116 93.0435 7.83951 93.4319 7.6143 93.8821C7.38909 94.3323 7.27711 94.8305 7.28808 95.3337C7.30048 95.847 7.44609 96.3483 7.71064 96.7885C7.9752 97.2286 8.34964 97.5925 8.79725 97.8446C10.1809 98.6851 11.6772 99.3245 13.2412 99.7433C16.8441 100.826 19.4691 102.17 21.1161 103.773C21.9221 104.546 22.5581 105.478 22.9835 106.509C23.4089 107.541 23.6143 108.65 23.5867 109.766C23.6352 110.977 23.3852 112.181 22.8587 113.272C22.3322 114.364 21.5453 115.309 20.5673 116.026C18.1787 117.649 15.3236 118.446 12.4389 118.294C10.2173 118.323 8.01464 117.881 5.97676 116.996C4.18854 116.256 2.64748 115.023 1.53279 113.441C0.499559 111.894 -0.0347488 110.068 0.00175301 108.208H6.35654C6.35654 111.598 8.38334 113.293 12.4369 113.293C13.6794 113.365 14.9131 113.044 15.9623 112.375C16.3732 112.089 16.7054 111.703 16.9283 111.255C17.1512 110.806 17.2576 110.309 17.2378 109.809ZM34.7821 89.4257V95.0386H38.6882V99.5098H34.7821V110.906C34.7232 111.549 34.8952 112.192 35.2673 112.72C35.5231 112.933 35.8199 113.092 36.1395 113.186C36.4591 113.281 36.7946 113.309 37.1254 113.268C37.7268 113.275 38.3276 113.225 38.9199 113.12V117.742C37.7226 118.107 36.4774 118.292 35.2255 118.29C30.9466 118.29 28.765 116.131 28.6808 111.813V99.5118H25.3454V95.0406H28.6808V89.4277L34.7821 89.4257ZM55.3248 117.869C55.0136 117.223 54.8069 116.532 54.7124 115.822C53.9916 116.631 53.1013 117.272 52.1047 117.699C51.1081 118.126 50.0297 118.328 48.9462 118.291C46.9124 118.365 44.9251 117.672 43.3788 116.35C42.6698 115.749 42.1039 114.998 41.7222 114.151C41.3406 113.304 41.1528 112.383 41.1727 111.454C41.1186 110.374 41.3368 109.299 41.8072 108.325C42.2777 107.352 42.9852 106.513 43.8649 105.884C45.6597 104.59 48.2532 103.935 51.6454 103.921H54.4529V102.613C54.4992 101.698 54.2101 100.798 53.6397 100.081C53.3091 99.7431 52.9075 99.4825 52.464 99.3182C52.0204 99.154 51.5459 99.0901 51.0747 99.1313C50.2063 99.0804 49.3485 99.3423 48.6569 99.8695C48.366 100.118 48.1359 100.43 47.9841 100.781C47.8322 101.132 47.7628 101.513 47.781 101.896H41.6797C41.6811 100.571 42.1119 99.2831 42.9075 98.2241C43.7977 97.0415 44.9954 96.1257 46.3702 95.5761C47.962 94.9167 49.672 94.5901 51.3948 94.6163C53.8126 94.4862 56.1951 95.2399 58.0976 96.7367C58.9347 97.4789 59.5931 98.4006 60.0235 99.433C60.4539 100.465 60.6452 101.582 60.583 102.698V112.595C60.5009 114.282 60.8116 115.965 61.4907 117.511V117.87L55.3248 117.869ZM50.2794 113.628C51.1467 113.636 52.0027 113.43 52.7708 113.027C53.4842 112.671 54.0733 112.109 54.4609 111.412V107.488H52.1802C49.1261 107.488 47.5003 108.542 47.3028 110.652L47.2819 111.011C47.2721 111.363 47.3387 111.714 47.4772 112.038C47.6157 112.362 47.8228 112.652 48.0842 112.889C48.6937 113.408 49.4798 113.673 50.2794 113.628ZM78.1014 100.757C77.3768 100.654 76.6462 100.599 75.9143 100.592C73.6058 100.592 72.0926 101.373 71.3748 102.934V117.873H65.2736V95.0386H71.0398L71.2088 97.7601C71.6779 96.813 72.4034 96.0163 73.3028 95.4606C74.2023 94.9049 75.2396 94.6124 76.297 94.6163C76.9405 94.6117 77.581 94.7041 78.1969 94.8906L78.1014 100.757ZM89.3963 89.4297V95.0426H93.3024V99.5138H89.3963V110.906C89.3374 111.549 89.5094 112.192 89.8815 112.72C90.1373 112.933 90.4341 113.092 90.7537 113.186C91.0733 113.281 91.4088 113.309 91.7396 113.268C92.341 113.275 92.9418 113.225 93.5341 113.12V117.742C92.3369 118.107 91.0916 118.292 89.8397 118.29C85.5608 118.29 83.3792 116.131 83.295 111.813V99.5118H79.9596V95.0406H83.295V89.4277L89.3963 89.4297ZM107.215 118.295C105.714 118.355 104.217 118.114 102.812 117.584C101.406 117.055 100.122 116.25 99.0339 115.215C97.9687 114.139 97.1383 112.854 96.595 111.441C96.0517 110.029 95.8074 108.519 95.8774 107.007V106.415C95.8406 104.29 96.2959 102.185 97.2076 100.265C98.027 98.5345 99.3377 97.0832 100.977 96.0918C102.661 95.0979 104.588 94.5902 106.544 94.6253C107.914 94.5545 109.284 94.782 110.558 95.2921C111.832 95.8021 112.98 96.5825 113.923 97.5793C115.718 99.5486 116.615 102.341 116.615 105.956V108.441H102.068C102.206 109.814 102.84 111.09 103.852 112.028C104.888 112.945 106.237 113.429 107.621 113.379C108.677 113.426 109.729 113.22 110.688 112.775C111.647 112.331 112.485 111.662 113.131 110.826L116.13 114.181C115.182 115.503 113.899 116.547 112.414 117.209C110.783 117.946 109.01 118.316 107.22 118.291L107.215 118.295ZM106.519 99.5575C105.969 99.5375 105.421 99.6365 104.913 99.8478C104.405 100.059 103.948 100.378 103.574 100.782C102.745 101.774 102.24 102.996 102.128 104.284H110.615V103.799C110.662 102.652 110.27 101.529 109.517 100.661C109.123 100.278 108.653 99.9818 108.137 99.791C107.622 99.6002 107.072 99.5193 106.523 99.5536L106.519 99.5575ZM132.91 100.76C132.182 100.655 131.448 100.598 130.713 100.591C128.405 100.591 126.892 101.372 126.174 102.933V117.872H120.077V95.0386H125.843L126.012 97.7601C126.481 96.813 127.206 96.0163 128.106 95.4606C129.005 94.9049 130.043 94.6124 131.1 94.6163C131.744 94.6117 132.384 94.7041 133 94.8906L132.91 100.76Z" fill="black"/>
<path d="M89.3511 60.8088H44.4142C42.3055 60.8065 40.2839 59.9682 38.7929 58.478C37.3018 56.9879 36.4631 54.9674 36.4608 52.86V7.94887C36.4631 5.84142 37.3018 3.82097 38.7929 2.33078C40.2839 0.840594 42.3055 0.00236688 44.4142 0H89.3511C91.4597 0.00236688 93.4813 0.840594 94.9724 2.33078C96.4634 3.82097 97.3021 5.84142 97.3045 7.94887V52.86C97.3021 54.9674 96.4634 56.9879 94.9724 58.478C93.4813 59.9682 91.4597 60.8065 89.3511 60.8088ZM55.1702 37.9906C55.0961 37.9887 55.0226 38.004 54.9555 38.0353L54.8461 38.1446C54.3599 38.3128 53.9243 38.6016 53.5802 38.9839C53.2361 39.3662 52.9947 39.8296 52.8786 40.3306L50.3634 49.5105C50.339 49.5384 50.3234 49.573 50.3186 49.6098C50.3138 49.6466 50.3201 49.6839 50.3365 49.7172C50.3459 49.7478 50.3636 49.7753 50.3877 49.7965C50.4117 49.8177 50.4411 49.8319 50.4727 49.8374H50.5821C50.6415 49.845 50.7018 49.8392 50.7586 49.8203C50.8154 49.8013 50.8672 49.7698 50.9102 49.7281L57.9082 43.2806C58.268 42.9522 58.5449 42.5433 58.716 42.0873C58.8871 41.6313 58.9475 41.1413 58.8924 40.6575L58.6737 40.4389C58.6703 40.2994 58.6275 40.1637 58.55 40.0476C58.4726 39.9316 58.3638 39.8398 58.2363 39.7831C57.776 39.5693 57.3367 39.3132 56.924 39.018C56.7052 38.8541 56.5104 38.7149 56.3274 38.5808C56.1445 38.4467 55.9447 38.3076 55.7309 38.1436C55.5573 38.0526 55.366 38.0004 55.1702 37.9906ZM55.4734 30.2275C55.4416 30.2275 55.3949 30.2742 55.3929 30.2762V30.3855C55.3899 30.5408 55.3689 30.6952 55.3303 30.8456C55.3037 30.9453 55.288 31.0475 55.2836 31.1506C55.284 31.1717 55.2891 31.1925 55.2985 31.2114C55.308 31.2303 55.3216 31.2469 55.3382 31.2599C55.3549 31.2729 55.3685 31.2895 55.3779 31.3084C55.3874 31.3273 55.3925 31.3481 55.3929 31.3692L56.5969 33.2273C56.666 33.32 56.712 33.4278 56.731 33.5419C56.7501 33.656 56.7415 33.7729 56.7062 33.883L55.9407 37.0526C55.9178 37.0721 55.9025 37.099 55.8974 37.1286C55.8923 37.1582 55.8978 37.1886 55.9129 37.2146C55.9497 37.2753 55.9952 37.3302 56.0481 37.3776C57.0604 38.1595 58.1608 38.8205 59.3269 39.3469H59.3358C59.3938 39.3536 59.4526 39.3472 59.5078 39.3283C59.563 39.3094 59.6133 39.2784 59.655 39.2376L62.0599 37.0517C62.1461 36.9687 62.2497 36.9059 62.3632 36.8679C62.4767 36.8299 62.5972 36.8177 62.716 36.8321L64.9032 37.0517C64.9244 37.0512 64.9452 37.0461 64.9641 37.0367C64.983 37.0272 64.9996 37.0137 65.0126 36.997C65.0256 36.9803 65.0422 36.9668 65.0611 36.9573C65.08 36.9479 65.1008 36.9428 65.1219 36.9424H65.8885C65.8958 36.883 65.8897 36.8228 65.8708 36.7661C65.8519 36.7094 65.8206 36.6576 65.7791 36.6145C64.8138 35.9716 60.681 33.4707 60.6392 33.4449C60.5974 33.419 56.4756 30.9251 55.4993 30.2752C55.5009 30.2605 55.497 30.2456 55.4884 30.2335C55.4841 30.2301 55.4788 30.2274 55.4734 30.2275ZM68.4972 29.1286C68.6963 29.1259 68.8916 29.183 69.0579 29.2926L72.7761 31.5868H72.7871C72.9376 31.6012 73.0885 31.5626 73.2136 31.4775L82.4018 19.0206C82.5525 18.8754 82.6633 18.6937 82.7233 18.4932C82.7834 18.2928 82.7908 18.0802 82.7448 17.876C82.6992 17.7534 82.6242 17.6439 82.5262 17.5573C82.4282 17.4706 82.3103 17.4094 82.1831 17.3792H82.0737L79.8865 17.0523L79.7771 16.943C79.6867 16.8973 79.637 16.8546 79.6399 16.8436C79.6429 16.8327 79.6449 16.8377 79.6529 16.8377C79.8144 16.8851 79.9669 16.959 80.1042 17.0563V16.947C80.8509 15.8808 82.9675 13.0242 83.0569 12.903C83.1152 12.8604 83.1643 12.8067 83.2015 12.7448C83.2386 12.683 83.263 12.6144 83.2732 12.543C83.2833 12.4716 83.2791 12.3989 83.2608 12.3292C83.2424 12.2594 83.2103 12.1941 83.1663 12.1369L83.0569 12.0276C83.0048 11.961 82.9385 11.9068 82.8629 11.869C82.7872 11.8312 82.7041 11.8107 82.6195 11.809L78.2451 11.1533C78.0412 11.1334 77.8355 11.1626 77.6453 11.2385C77.455 11.3144 77.2857 11.4347 77.1515 11.5894L74.855 14.7591C74.6993 14.9779 74.6352 15.2487 74.6763 15.5141C74.7173 15.7794 74.8602 16.0182 75.0747 16.1799C75.1264 16.1799 75.1512 16.1799 75.1562 16.1899C75.1612 16.1998 75.1343 16.2296 75.0747 16.2892C75.0747 16.2892 75.025 16.3379 74.9931 16.3379C74.989 16.3381 74.9849 16.3373 74.9812 16.3353C74.9775 16.3334 74.9744 16.3305 74.9723 16.327C74.9662 16.3154 74.9634 16.3023 74.9643 16.2892L73.7614 16.0706L72.0126 15.852C71.9342 15.8331 71.8537 15.8237 71.773 15.8242C71.5876 15.8237 71.4045 15.8654 71.2376 15.9462C71.0706 16.0269 70.9243 16.1446 70.8096 16.2902L63.922 25.6887C63.8454 25.7653 63.7659 25.8437 63.6893 25.8437C63.6705 25.8436 63.6519 25.8394 63.6347 25.8316C63.6176 25.8237 63.6023 25.8123 63.5899 25.798H63.4796L56.8096 21.7551C56.6673 21.6838 56.5105 21.6464 56.3513 21.6458C56.1986 21.6407 56.0477 21.6792 55.916 21.7566C55.7844 21.834 55.6775 21.9472 55.6077 22.0829C55.4988 22.313 55.4698 22.5728 55.5251 22.8212C55.5458 22.9415 55.5934 23.0557 55.6643 23.1551C55.7352 23.2546 55.8276 23.3367 55.9347 23.3955L56.1535 23.5048C56.2638 23.5048 56.2638 23.6161 56.2638 23.7234L56.0451 25.035C56.0472 25.0718 56.0354 25.108 56.012 25.1366C55.9886 25.1651 55.9554 25.1838 55.9188 25.189C55.9011 25.1881 55.8836 25.1837 55.8676 25.1761C55.8515 25.1684 55.8372 25.1576 55.8254 25.1442H55.716L54.7318 24.5978C54.4978 24.4476 54.2244 24.3702 53.9464 24.3752C53.474 24.4143 53.0317 24.623 52.7013 24.9628C52.3709 25.3025 52.1747 25.7502 52.1489 26.2233C52.1568 26.4155 52.206 26.6037 52.2931 26.7751C52.3803 26.9466 52.5033 27.0972 52.654 27.2169L52.8727 27.4365L57.7939 30.4958C58.5425 30.9929 59.4223 31.2558 60.3211 31.251C61.3497 31.2518 62.3491 30.9091 63.1604 30.2772C63.5072 29.9225 63.9796 29.7183 64.4757 29.7089C64.8339 29.7056 65.1817 29.8296 65.457 30.0586C65.6393 30.1663 65.8472 30.2231 66.059 30.2231C66.2707 30.2231 66.4786 30.1663 66.6609 30.0586L67.8639 29.2936C68.0608 29.1904 68.2789 29.1343 68.5012 29.1296L68.4972 29.1286Z" fill="black"/>
</svg>
