<svg width="45" height="57" viewBox="0 0 45 57" fill="none" xmlns="http://www.w3.org/2000/svg">
<path fill-rule="evenodd" clip-rule="evenodd" d="M21.1201 37.3179C19.7769 36.4353 14.1092 32.7258 14.1092 32.7258C14.1092 32.7258 8.44407 29.0104 7.09904 28.1314C6.97056 28.0475 6.8064 28.1422 6.79926 28.3033C6.78446 28.64 6.76252 29.1326 6.75062 29.4077C6.74507 29.5413 6.77679 29.672 6.84315 29.7852C7.13949 30.2912 8.01264 31.7816 8.45253 32.5335C8.61828 32.8171 8.66771 33.1612 8.5892 33.4851L7.45222 38.1776C7.40675 38.3659 7.46887 38.5642 7.61109 38.6853C8.19716 39.1841 8.92149 39.733 9.79492 40.305C10.6678 40.8774 11.454 41.3181 12.1352 41.6494C12.3005 41.7296 12.4934 41.6985 12.6285 41.5691L16.0003 38.3409C16.2332 38.118 16.5409 38.008 16.8518 38.0369C17.6758 38.1132 19.3095 38.2655 19.8649 38.3174C19.9894 38.329 20.1132 38.2995 20.2213 38.2329C20.4441 38.0959 20.8425 37.8503 21.1145 37.6827C21.2449 37.6024 21.2483 37.4022 21.1201 37.3179Z" fill="white"/>
<path fill-rule="evenodd" clip-rule="evenodd" d="M11.5893 43.2536C11.5311 42.8775 11.3058 42.5537 10.9848 42.3838C10.0854 41.9073 9.3703 41.4516 9.17471 41.3247C8.97912 41.1978 8.27087 40.7297 7.46125 40.0968C7.17249 39.8709 6.79851 39.8059 6.45709 39.9227L6.26177 39.9893C4.90534 40.4535 3.86016 41.6114 3.48115 43.0713C2.55216 46.6498 0.803231 53.3876 0.0168998 56.4167C-0.0987606 56.8617 0.405699 57.1889 0.725154 56.8766C2.90153 54.7497 7.74232 50.0184 10.3131 47.5055C11.3619 46.4804 11.8537 44.9634 11.6224 43.4691L11.5893 43.2536Z" fill="white"/>
<path fill-rule="evenodd" clip-rule="evenodd" d="M44.776 2.51029C45.1875 1.92802 44.9408 1.48701 44.7569 1.30641C44.7569 1.30641 44.7566 1.30613 44.7563 1.30585C44.5623 1.14337 44.3265 1.02759 44.0551 0.983716L38.0909 0.0181784C37.5376 -0.0712704 36.9837 0.173865 36.6516 0.654794L33.397 5.36699C32.8964 6.09164 33.0679 7.0467 33.6509 7.56019C33.6933 7.59812 33.705 7.66435 33.6756 7.71616C33.6509 7.7589 33.604 7.77956 33.5603 7.77249L31.919 7.50669L29.6581 7.14068C29.0289 7.03906 28.3989 7.31732 28.0213 7.86448L18.5081 21.6393C18.3844 21.8185 18.1533 21.8675 17.9749 21.7525L8.81718 15.8452C8.2116 15.4546 7.42129 15.672 7.06907 16.3327C6.72586 16.9764 6.96969 17.8004 7.56308 18.1834L7.79975 18.3359C7.91689 18.4112 7.97997 18.5545 7.95956 18.6991L7.68155 20.6676C7.65504 20.8566 7.45707 20.9557 7.30415 20.8569C7.30415 20.8569 5.99783 20.0275 5.96444 20.0057C4.88128 19.2975 3.46551 19.6613 2.80241 20.8181C2.21193 21.8485 2.41892 23.1588 3.23573 23.9338C3.26091 23.9582 3.49784 24.1529 3.55906 24.1929C3.56039 24.1937 3.56171 24.1948 3.56304 24.1954C3.5633 24.1957 3.56357 24.196 3.56357 24.196L10.4047 28.6693C14.1026 31.0547 16.9135 29.0987 17.791 28.3972C18.5699 27.7745 19.4548 27.0869 20.931 28.0442C21.46 28.3876 22.1279 28.3749 22.6606 28.0377L24.3636 26.9601C24.8661 26.6422 25.4918 26.6451 25.9922 26.9675L31.1796 30.3139C31.3834 30.4452 31.6473 30.3895 31.7889 30.1848L44.468 11.854C45.5021 10.3809 44.7367 9.6645 44.1068 9.48843C44.0662 9.47852 44.0267 9.46635 43.9849 9.45956L40.9439 8.96759C40.8991 8.95995 40.8541 8.93957 40.8128 8.91267C40.6442 8.80285 40.5912 8.56677 40.6943 8.38646C41.725 6.89951 44.776 2.51029 44.776 2.51029Z" fill="white"/>
</svg>
