<svg width="40" height="40" viewBox="0 0 40 40" fill="none" xmlns="http://www.w3.org/2000/svg">
<path d="M14.7188 8.61798V8.26422L14.3852 8.14648L9.69831 6.49235C9.42966 6.39752 9.25 6.14354 9.25 5.85876C9.25 5.57399 9.42965 5.32003 9.69829 5.22518C9.6983 5.22518 9.69831 5.22517 9.69831 5.22517L22.9795 0.537679L22.9797 0.537633C23.1242 0.48656 23.282 0.48656 23.4266 0.537634L23.4267 0.537679L36.7079 5.22517C36.9766 5.32001 37.1562 5.57398 37.1562 5.85876V12.1088C37.1562 12.4798 36.8554 12.7806 36.4844 12.7806C36.1133 12.7806 35.8125 12.4798 35.8125 12.1088V7.51501V6.80831L35.1461 7.04352L32.0211 8.14649L31.6875 8.26423V8.61798V15.2338C31.6875 15.6048 31.3867 15.9056 31.0156 15.9056H15.3906C15.0196 15.9056 14.7188 15.6048 14.7188 15.2338V8.61798ZM29.8438 14.5619H30.3438V14.0619V9.44517V8.73847L29.6773 8.97367L23.4267 11.1798C23.3544 11.2053 23.2787 11.2181 23.2031 11.2181C23.1275 11.2181 23.0518 11.2053 22.9795 11.1798L16.7289 8.97367L16.0625 8.73847V9.44517V14.0619V14.5619H16.5625H29.8438ZM23.3695 1.9425L23.2031 1.88377L23.0367 1.9425L13.2765 5.38727L11.9406 5.85876L13.2765 6.33026L23.0367 9.77502L23.2031 9.83375L23.3695 9.77502L33.1298 6.33026L34.4657 5.85876L33.1298 5.38727L23.3695 1.9425ZM37.4093 21.9254L37.4094 21.9254C38.6826 22.3564 39.5 23.496 39.5 24.8402C39.5 25.4318 39.3311 26.0069 39.0112 26.5045L39.4318 26.7749L39.0112 26.5045L34.4378 33.6186C33.0134 35.8345 30.5923 37.1563 27.9581 37.1563H8.75H8.25V37.6563V38.8281C8.25 39.1992 7.94917 39.5 7.57812 39.5H1.17188C0.80083 39.5 0.5 39.1992 0.5 38.8281V23.2031C0.5 22.8321 0.800829 22.5313 1.17188 22.5313H7.57812C7.94917 22.5313 8.25 22.8321 8.25 23.2031V23.3709V24.1927L8.97987 23.8149C11.6462 22.4346 14.9203 22.7857 17.236 24.7558L17.3761 24.875H17.56H25.3125C27.1903 24.875 28.7188 26.4035 28.7188 28.2813C28.7188 28.3076 28.7178 28.3093 28.7165 28.363L28.6817 29.8967L29.6136 28.6781L33.9779 22.971C34.7947 21.903 36.136 21.4942 37.4093 21.9254ZM6.40625 38.1563H6.90625V37.6563V24.375V23.875H6.40625H2.34375H1.84375V24.375V37.6563V38.1563H2.34375H6.40625ZM8.25 35.3125V35.8125H8.75H27.9581C30.1313 35.8125 32.1323 34.7201 33.3075 32.892L37.8809 25.7779L37.4603 25.5075L37.8809 25.7779C38.0609 25.4978 38.1562 25.1732 38.1562 24.8405C38.1562 23.6807 37.2277 23.2828 36.9786 23.1983C36.7291 23.1138 35.7498 22.8661 35.0453 23.7873L30.6127 29.5838C29.6059 30.9003 28.0129 31.6876 26.3555 31.6876H16.9531C16.5821 31.6876 16.2812 31.3868 16.2812 31.0157C16.2812 30.6447 16.5821 30.3438 16.9531 30.3438H25.3124C26.4501 30.3438 27.3749 29.419 27.3749 28.2813C27.3749 27.1436 26.4501 26.2188 25.3124 26.2188H17.1093C16.9357 26.2188 16.7688 26.1516 16.6437 26.0313L16.6437 26.0312C14.5226 23.9918 11.2456 23.7528 8.85136 25.4631C8.85135 25.4631 8.85133 25.4631 8.85132 25.4632L8.45941 25.743L8.25 25.8926V26.1499V35.3125Z" fill="black" stroke="black"/>
</svg>
