<svg width="373" height="333" viewBox="0 0 373 333" fill="none" xmlns="http://www.w3.org/2000/svg">
<path d="M353.294 9.3192e-06H243.213C208.831 -1.35422e-05 207.993 1.28519e-05 181.975 1.28519e-05C155.947 1.28519e-05 157.896 1.28519e-05 129.052 9.3192e-06H18.9894C8.5189 9.3192e-06 0 8.51382 0 18.9785V233.042C0 243.506 8.5189 252.02 18.9894 252.02H124.825L110.177 281.688H98.2538C84.0969 281.688 72.5801 293.198 72.5801 307.344V325.729C72.5801 329.745 75.8354 333 79.8512 333H292.433C296.448 333 299.704 329.745 299.704 325.729V307.344C299.704 293.197 288.187 281.687 274.03 281.687H262.104L247.442 252.02H353.294C363.764 252.02 372.283 243.506 372.283 233.041V18.9778C372.284 8.51382 363.765 9.3192e-06 353.294 9.3192e-06ZM285.162 307.344V318.458H87.1224V307.344C87.1224 301.216 92.1162 296.23 98.2538 296.23H274.03C280.168 296.23 285.162 301.216 285.162 307.344ZM245.883 281.688H126.395L141.043 252.02H231.221L245.883 281.688ZM353.294 237.478H18.9894C16.5368 237.478 14.5423 235.488 14.5423 233.042V217.167H153.462C157.478 217.167 160.734 213.911 160.734 209.895C160.734 205.88 157.478 202.624 153.462 202.624H14.5423V18.9785C14.5423 16.5325 16.5375 14.5423 18.9894 14.5423H125.465C148.173 14.5423 149.099 14.5423 149.099 14.5423C149.099 14.5423 136.698 14.5423 170.399 14.5423C204.088 14.5423 162.99 14.5423 206.979 14.5423C206.979 14.5423 236.613 14.5423 246.797 14.5423H353.293C355.703 14.5423 357.74 16.5732 357.74 18.9785V202.625H218.821C214.806 202.625 211.55 205.88 211.55 209.896C211.55 213.912 214.806 217.167 218.821 217.167H357.741V233.042C357.741 235.488 355.746 237.478 353.294 237.478Z" fill="black"/>
<path d="M139.846 107.816H137.917C138.021 90.2456 138.08 71.1217 137.869 68.5062C137.407 63.0994 134.178 58.7003 129.644 57.2984C125.156 55.9089 120.356 57.6802 116.796 62.04C112.634 67.1509 92.1045 104.197 88.0319 111.573C86.7878 113.825 86.827 116.567 88.1344 118.783C89.4418 121 91.8238 122.359 94.3963 122.359H123.277C123.242 127.318 123.204 132.082 123.168 136.358C123.133 140.374 126.361 143.657 130.376 143.691H130.44C134.426 143.691 137.675 140.476 137.709 136.481C137.732 133.884 137.774 128.728 137.82 122.359H139.846C143.862 122.359 147.117 119.103 147.117 115.088C147.117 111.072 143.862 107.816 139.846 107.816ZM123.372 107.816H106.754C113.106 96.4522 119.337 85.515 123.471 78.5463C123.48 85.8131 123.437 96.6144 123.372 107.816Z" fill="black"/>
<path d="M212.889 84.2112C212.889 69.1213 200.604 56.8447 185.502 56.8447C170.413 56.8447 158.137 69.1213 158.137 84.2112V116.343C158.137 131.422 170.413 143.689 185.502 143.689C200.603 143.689 212.889 131.422 212.889 116.343V84.2112ZM198.347 116.344C198.347 123.403 192.585 129.148 185.502 129.148C178.431 129.148 172.679 123.404 172.679 116.344V84.2119C172.679 77.1407 178.432 71.3877 185.502 71.3877C192.585 71.3877 198.347 77.1407 198.347 84.2119V116.344Z" fill="black"/>
<path d="M232.418 122.358H261.304C261.266 127.317 261.228 132.08 261.19 136.355C261.154 140.37 264.381 143.654 268.396 143.69H268.462C272.447 143.69 275.696 140.477 275.732 136.483C275.754 133.886 275.799 128.727 275.847 122.358H277.889C281.904 122.358 285.16 119.103 285.16 115.087C285.16 111.071 281.904 107.816 277.889 107.816H275.947C276.054 90.2412 276.114 71.1115 275.892 68.5062C275.43 63.0994 272.202 58.7003 267.667 57.2985C263.182 55.9104 258.379 57.6809 254.819 62.04C250.656 67.1509 230.127 104.197 226.054 111.573C224.81 113.825 224.849 116.567 226.157 118.783C227.463 120.998 229.845 122.358 232.418 122.358ZM261.501 78.5317C261.513 85.7956 261.469 96.6049 261.401 107.815H244.776C251.133 96.4428 257.367 85.4997 261.501 78.5317Z" fill="black"/>
</svg>
