<svg width="30" height="30" viewBox="0 0 30 30" fill="none" xmlns="http://www.w3.org/2000/svg">
<path d="M25.5114 5.55924C26.1051 5.55924 26.5865 5.06364 26.5865 4.45228C26.5865 3.84092 26.1051 3.34531 25.5114 3.34531C24.9176 3.34531 24.4363 3.84092 24.4363 4.45228C24.4363 5.06364 24.9176 5.55924 25.5114 5.55924Z" fill="black"/>
<path d="M25.5115 5.58537C24.9048 5.58537 24.4111 5.07707 24.4111 4.45231C24.4111 3.82756 24.9048 3.31926 25.5115 3.31926C26.1183 3.31926 26.612 3.82756 26.612 4.45231C26.612 5.07707 26.1183 5.58537 25.5115 5.58537ZM25.5115 3.37144C24.9327 3.37144 24.4618 3.85631 24.4618 4.45231C24.4618 5.04832 24.9327 5.53319 25.5115 5.53319C26.0904 5.53319 26.5613 5.04832 26.5613 4.45231C26.5613 3.85631 26.0904 3.37144 25.5115 3.37144Z" fill="black"/>
<path d="M22.3068 5.55924C22.9006 5.55924 23.3819 5.06364 23.3819 4.45228C23.3819 3.84092 22.9006 3.34531 22.3068 3.34531C21.713 3.34531 21.2317 3.84092 21.2317 4.45228C21.2317 5.06364 21.713 5.55924 22.3068 5.55924Z" fill="black"/>
<path d="M22.3068 5.58537C21.7 5.58537 21.2063 5.07707 21.2063 4.45231C21.2063 3.82756 21.7 3.31926 22.3068 3.31926C22.9136 3.31926 23.4072 3.82756 23.4072 4.45231C23.4072 5.07707 22.9136 5.58537 22.3068 5.58537ZM22.3068 3.37144C21.7279 3.37144 21.257 3.85631 21.257 4.45231C21.257 5.04832 21.7279 5.53319 22.3068 5.53319C22.8856 5.53319 23.3565 5.04832 23.3565 4.45231C23.3565 3.85631 22.8856 3.37144 22.3068 3.37144Z" fill="black"/>
<path d="M19.1022 5.55924C19.696 5.55924 20.1773 5.06364 20.1773 4.45228C20.1773 3.84092 19.696 3.34531 19.1022 3.34531C18.5084 3.34531 18.0271 3.84092 18.0271 4.45228C18.0271 5.06364 18.5084 5.55924 19.1022 5.55924Z" fill="black"/>
<path d="M19.1022 5.58537C18.4954 5.58537 18.0017 5.07707 18.0017 4.45231C18.0017 3.82756 18.4954 3.31926 19.1022 3.31926C19.709 3.31926 20.2027 3.82756 20.2027 4.45231C20.2027 5.07707 19.709 5.58537 19.1022 5.58537ZM19.1022 3.37144C18.5234 3.37144 18.0524 3.85631 18.0524 4.45231C18.0524 5.04832 18.5234 5.53319 19.1022 5.53319C19.6811 5.53319 20.152 5.04832 20.152 4.45231C20.152 3.85631 19.6811 3.37144 19.1022 3.37144Z" fill="black"/>
<path d="M2.97159 29.9739H27.0286C28.653 29.9739 29.9747 28.613 29.9747 26.9403V3.05958C29.9747 1.38687 28.653 0.0260742 27.0286 0.0260742H2.97159C1.34708 0.0260742 0.0253906 1.38687 0.0253906 3.05958V26.9404C0.0253906 28.613 1.34708 29.9739 2.97159 29.9739ZM27.8038 26.9403C27.8038 27.3812 27.4567 27.7386 27.0286 27.7386H2.97159C2.5434 27.7386 2.19628 27.3812 2.19628 26.9403V8.71143H27.8038V26.9403ZM2.19628 3.05958C2.19628 2.61869 2.5434 2.26129 2.97159 2.26129H27.0286C27.4567 2.26129 27.8038 2.61869 27.8038 3.05958V6.47627H2.19628V3.05958Z" fill="black"/>
<path d="M27.0285 30H2.97154C1.33304 30 0 28.6275 0 26.9404V3.05959C0 1.37254 1.33304 0 2.97154 0H27.0285C28.667 0 30 1.37254 30 3.05959V26.9404C30 28.6275 28.667 30 27.0285 30ZM2.97154 0.0521759C1.36096 0.0521759 0.0506743 1.40129 0.0506743 3.05959V26.9404C0.0506743 28.5987 1.36096 29.9479 2.97154 29.9479H27.0285C28.639 29.9479 29.9493 28.5988 29.9493 26.9404V3.05959C29.9493 1.40129 28.6391 0.0521759 27.0285 0.0521759H2.97154ZM27.0285 27.7647H2.97154C2.53007 27.7647 2.17089 27.3949 2.17089 26.9404V8.68536H27.8291V26.9404C27.8291 27.3949 27.47 27.7647 27.0285 27.7647ZM2.22156 8.73753V26.9404C2.22156 27.3661 2.55799 27.7125 2.97154 27.7125H27.0285C27.442 27.7125 27.7784 27.3661 27.7784 26.9404V8.73753H2.22156ZM27.8291 6.50237H2.17089V3.05959C2.17089 2.60504 2.53007 2.23522 2.97154 2.23522H27.0285C27.47 2.23522 27.8291 2.60504 27.8291 3.05959V6.50237ZM2.22156 6.45019H27.7784V3.05959C27.7784 2.63379 27.442 2.28739 27.0285 2.28739H2.97154C2.55799 2.28739 2.22156 2.63384 2.22156 3.05959V6.45019Z" fill="black"/>
<path d="M10.1303 22.8389C10.3422 23.0571 10.62 23.1662 10.8978 23.1662C11.1756 23.1662 11.4534 23.057 11.6653 22.8389L14.9999 19.4053L18.3346 22.8389C18.5465 23.0571 18.8243 23.1662 19.1021 23.1662C19.3799 23.1662 19.6577 23.057 19.8696 22.8389C20.2935 22.4024 20.2935 21.6947 19.8696 21.2583L16.5349 17.8248L19.8695 14.3913C20.2934 13.9548 20.2934 13.2472 19.8695 12.8108C19.4457 12.3743 18.7584 12.3743 18.3345 12.8108L14.9999 16.2443L11.6652 12.8108C11.2413 12.3743 10.554 12.3743 10.1302 12.8108C9.70628 13.2472 9.70628 13.9548 10.1302 14.3913L13.4648 17.8248L10.1302 21.2583C9.70638 21.6947 9.70638 22.4024 10.1303 22.8389Z" fill="black"/>
<path d="M19.1023 23.1923C18.8056 23.1923 18.5266 23.0734 18.3169 22.8574L15.0001 19.4423L11.6833 22.8574C11.4735 23.0734 11.1945 23.1923 10.8979 23.1923C10.6012 23.1923 10.3223 23.0734 10.1124 22.8574C9.67932 22.4114 9.67932 21.6859 10.1124 21.2399L13.4292 17.8248L10.1124 14.4098C9.67937 13.9639 9.67937 13.2383 10.1124 12.7924C10.3222 12.5764 10.6012 12.4574 10.8979 12.4574C11.1946 12.4574 11.4735 12.5764 11.6833 12.7924L15.0001 16.2075L18.3169 12.7924C18.5267 12.5764 18.8057 12.4574 19.1024 12.4574C19.399 12.4574 19.6779 12.5764 19.8877 12.7924C20.0976 13.0084 20.2131 13.2956 20.2131 13.6011C20.2131 13.9065 20.0976 14.1938 19.8877 14.4098L16.571 17.8248L19.8878 21.2399C20.3209 21.6859 20.3209 22.4114 19.8878 22.8574C19.6779 23.0734 19.3989 23.1923 19.1023 23.1923ZM15.0001 19.3685L18.3527 22.8205C18.5529 23.0266 18.8191 23.1402 19.1023 23.1402C19.3854 23.1402 19.6516 23.0266 19.8519 22.8205C20.2653 22.3949 20.2653 21.7024 19.8519 21.2768L16.4993 17.8248L19.8518 14.3729C20.052 14.1668 20.1624 13.8927 20.1624 13.6011C20.1624 13.3096 20.052 13.0355 19.8518 12.8293C19.6517 12.6232 19.3855 12.5096 19.1023 12.5096C18.8191 12.5096 18.5529 12.6232 18.3527 12.8293L15.0001 16.2813L11.6475 12.8293C11.4472 12.6231 11.181 12.5096 10.8978 12.5096C10.6147 12.5096 10.3485 12.6232 10.1483 12.8293C9.73496 13.2549 9.73496 13.9474 10.1483 14.3729L13.5008 17.8248L10.1483 21.2768C9.73491 21.7024 9.73491 22.3949 10.1483 22.8205C10.3485 23.0266 10.6148 23.1402 10.8979 23.1402C11.181 23.1402 11.4472 23.0266 11.6475 22.8205L15.0001 19.3685Z" fill="black"/>
</svg>
