<svg width="165" height="146" viewBox="0 0 165 146" fill="none" xmlns="http://www.w3.org/2000/svg">
<path d="M109.714 16.7241C101.619 12.2969 93.4254 7.77225 85.3296 3.34503C84.5093 2.90897 83.5939 2.68088 82.6642 2.68088C81.7344 2.68088 80.819 2.90897 79.9986 3.34503C71.9038 7.77225 63.809 12.2969 55.7132 16.7241C54.9374 17.1365 54.2832 17.7438 53.8157 18.4859C53.3483 19.2279 53.0837 20.0789 53.0483 20.9544V47.9096C53.0612 48.8155 53.3265 49.7 53.8145 50.4643C54.3026 51.2287 54.9941 51.8429 55.812 52.2384C58.0827 53.419 60.2547 54.6981 62.5255 55.8778L75.7536 63.1577L79.801 65.4205C80.0771 65.5937 80.3761 65.7276 80.6894 65.8184L81.0885 66.0173H81.1884C82.5407 66.3862 83.9819 66.2445 85.2358 65.6195C93.3306 61.1922 101.425 56.6675 109.521 52.2403C110.335 51.8389 111.022 51.2233 111.509 50.4603C111.996 49.6972 112.265 48.8158 112.285 47.9116V20.9564C112.256 20.0906 112.005 19.2466 111.554 18.5055C111.104 17.7644 110.47 17.151 109.714 16.7241ZM74.6687 46.9259L68.3505 52.7297C68.3113 52.7677 68.264 52.7963 68.2122 52.8135C68.1603 52.8308 68.1053 52.8361 68.0511 52.8292H67.9512C67.9211 52.821 67.8935 52.8055 67.8708 52.7841C67.8481 52.7627 67.8311 52.7361 67.8212 52.7066C67.8113 52.6771 67.8088 52.6456 67.8141 52.6149C67.8194 52.5842 67.8322 52.5553 67.8514 52.5308L70.1222 44.2672C70.2279 43.8166 70.4462 43.4 70.7568 43.056C71.0675 42.712 71.4603 42.4519 71.8989 42.2997L71.9986 42.2003C72.1146 42.1681 72.236 42.1604 72.355 42.1775C72.4741 42.1946 72.5883 42.2363 72.6903 42.2997C73.0896 42.5981 73.3811 42.7921 73.7763 43.0865C74.1488 43.3523 74.5455 43.5827 74.9611 43.7748C75.0768 43.8254 75.1758 43.9077 75.2465 44.0121C75.3171 44.1165 75.3567 44.2388 75.3604 44.3646L75.56 44.5636C75.6087 44.9994 75.5532 45.4406 75.3981 45.851C75.2431 46.2614 74.9927 46.6294 74.6676 46.9249L74.6687 46.9259ZM81.1844 41.2196C81.0846 41.2196 81.0845 41.319 80.9847 41.319L79.0105 41.1201C78.9031 41.1071 78.794 41.1182 78.6914 41.1526C78.5888 41.187 78.4953 41.2439 78.4176 41.319L76.2457 43.2865C76.2065 43.3245 76.1592 43.3532 76.1074 43.3704C76.0555 43.3876 76.0004 43.3929 75.9462 43.3859C74.8928 42.9135 73.8989 42.3193 72.9848 41.6154C72.885 41.5159 72.7851 41.4165 72.8849 41.317L73.5756 38.4643C73.6075 38.3652 73.6151 38.26 73.5977 38.1573C73.5803 38.0547 73.5386 37.9577 73.4759 37.8745L72.3899 36.2025C72.3899 36.103 72.2901 36.103 72.2901 36.0036C72.2901 35.8046 72.3899 35.6057 72.3899 35.3153V35.2158C72.3899 35.2158 72.4897 35.1163 72.4897 35.2158C73.378 35.8056 77.13 38.0685 77.13 38.0685C77.13 38.0685 80.882 40.3313 81.7703 40.9211C81.8084 40.9602 81.8371 41.0073 81.8544 41.059C81.8717 41.1106 81.8771 41.1655 81.8701 41.2196H81.1844ZM94.4125 23.2163L94.5124 23.3157L96.4866 23.6141H96.5865C96.9858 23.7136 97.4748 24.205 96.7861 25.0902L88.4937 36.3049C88.3766 36.3841 88.2351 36.4193 88.0944 36.4044L84.7377 34.3385C84.5733 34.2414 84.3858 34.1902 84.1947 34.1902C84.0037 34.1902 83.8162 34.2414 83.6518 34.3385L82.5658 35.0268C82.4013 35.1234 82.2138 35.1743 82.0228 35.1743C81.8318 35.1743 81.6444 35.1234 81.4799 35.0268C81.1722 34.7949 80.7884 34.6866 80.4044 34.7234C80.0204 34.7603 79.6643 34.9396 79.4067 35.2258C78.7224 35.7587 77.8877 36.0646 77.0199 36.1002C76.1521 36.1359 75.2948 35.8997 74.5688 35.4247L70.1262 32.6705L69.9265 32.4715C69.7914 32.3588 69.681 32.2197 69.6023 32.0626C69.5235 31.9056 69.4781 31.734 69.4687 31.5587C69.4594 31.3834 69.4863 31.208 69.5479 31.0435C69.6095 30.879 69.7044 30.7289 69.8267 30.6026C70.0266 30.2805 70.3448 30.0488 70.7135 29.9568C71.0822 29.8649 71.4724 29.9199 71.801 30.1102L72.6894 30.6026H72.7892C72.889 30.702 72.9887 30.6026 72.9887 30.5031L73.1884 29.3225C73.1884 29.223 73.1885 29.1235 73.0886 29.1235L72.8889 29.0241C72.7017 28.8987 72.5675 28.7089 72.5122 28.4909C72.4569 28.273 72.4845 28.0424 72.5896 27.8434C72.6943 27.6607 72.8672 27.5268 73.0707 27.4708C73.2742 27.4149 73.4916 27.4416 73.6754 27.545L79.6972 31.1844H79.797C79.8968 31.2839 79.9967 31.1845 80.0965 31.085L86.3158 22.6244C86.4417 22.464 86.6101 22.3417 86.8019 22.2714C86.9938 22.2011 87.2015 22.1856 87.4017 22.2266L88.9808 22.4255L90.0667 22.6244C90.0667 22.7239 90.1666 22.6244 90.1666 22.6244C90.2664 22.525 90.2664 22.525 90.1666 22.525C89.9737 22.3789 89.8451 22.1641 89.8079 21.9255C89.7706 21.687 89.8276 21.4434 89.9669 21.2459L92.04 18.3932C92.1598 18.2521 92.3123 18.1421 92.4842 18.0728C92.6562 18.0035 92.8426 17.9769 93.0272 17.9953L96.9758 18.5851C97.0531 18.5862 97.129 18.6046 97.1982 18.6391C97.2673 18.6735 97.3278 18.7231 97.375 18.7841L97.4749 18.8836C97.6745 19.0825 97.5746 19.3759 97.375 19.5718C97.375 19.5718 95.4006 22.2276 94.7089 23.2123V23.3118C94.2139 23.0193 94.2149 23.1178 94.4125 23.2163Z" fill="black"/>
<path d="M90.7584 6.39463C93.8187 4.03331 95.4975 3.54197 98.0637 3.54197C98.8155 3.54213 99.5577 3.71038 100.236 4.03432C102.506 5.31345 103.493 9.14985 102.802 14.6592L106.06 16.4297C107.146 8.56001 105.66 3.14907 101.815 0.984695C100.609 0.315237 99.2463 -0.0241467 97.8661 0.000996981C94.4106 0.000996981 91.6467 0.984701 87.3029 4.4282C88.5865 5.11551 89.6735 5.8038 90.7584 6.39463Z" fill="black"/>
<path d="M53.0502 40.8207C48.5087 38.6563 47.4228 36.8858 47.4228 34.426C47.4228 31.8688 49.989 29.409 54.6292 27.2446V23.3148C47.7192 26.1674 43.8684 30.1023 43.8684 34.3326C43.8684 38.6613 46.1392 41.7109 53.0513 44.5636L53.0502 40.8207Z" fill="black"/>
<path d="M62.23 13.0837C61.6371 7.67279 62.6293 5.40995 64.9938 4.13181C65.6453 3.73783 66.4074 3.56508 67.1658 3.63946C69.733 3.63946 72.6944 5.01706 75.7496 7.37738L79.0076 5.60689C74.7625 2.16339 70.5175 0.19596 67.062 0.19596C65.6817 0.171005 64.3194 0.510377 63.1133 1.17966C59.2636 3.4425 57.6836 7.18043 58.8684 15.0501C60.0581 14.2644 61.144 13.6745 62.23 13.0837Z" fill="black"/>
<path d="M112.18 24.2985V28.0364C116.722 30.2008 117.808 31.9712 117.808 34.431C117.808 36.9883 115.241 39.4481 110.601 41.6124V45.5473C117.511 42.6946 121.362 38.7598 121.362 34.5295C121.361 30.2007 119.189 27.1511 112.18 24.2985Z" fill="black"/>
<path d="M74.5688 62.3699C71.5076 64.7312 69.8297 65.2226 67.2636 65.2226C66.5117 65.2224 65.7695 65.0542 65.0916 64.7302C62.7221 63.4511 61.8337 59.5162 62.5244 54.1053C61.4385 53.5155 60.2536 52.9247 59.1677 52.2364C58.0817 60.0076 59.567 65.4185 63.3139 67.5829C64.52 68.2522 65.8822 68.5916 67.2625 68.5666C70.718 68.6661 73.5806 67.6814 77.9245 64.2379L74.5688 62.3699Z" fill="black"/>
<path d="M103 55.7793C103.593 61.1903 102.506 63.4531 100.237 64.7312C99.5852 65.1252 98.8231 65.298 98.0647 65.2236C95.4985 65.2236 92.5371 63.846 89.3811 61.4857C88.2951 62.0755 87.2091 62.6663 86.0243 63.2562C90.3682 66.7981 94.5144 68.7656 98.0677 68.7656C99.4483 68.7906 100.811 68.4513 102.017 67.7818C105.867 65.519 107.546 61.7811 106.262 53.9114C105.271 54.5002 104.086 55.091 103 55.7793Z" fill="black"/>
<path d="M35.1848 144.888V136.704H38.0634C38.8609 136.65 39.6549 136.85 40.3311 137.274C40.588 137.468 40.793 137.722 40.9278 138.014C41.0625 138.306 41.1229 138.626 41.1037 138.947C41.1097 139.323 41.0004 139.692 40.7902 140.005C40.5796 140.313 40.2778 140.547 39.9269 140.676C40.3241 140.765 40.6775 140.99 40.925 141.312C41.1736 141.65 41.3015 142.061 41.2883 142.481C41.3114 142.817 41.2551 143.154 41.1239 143.465C40.9927 143.776 40.7902 144.052 40.5327 144.271C39.9052 144.714 39.1456 144.932 38.3778 144.89L35.1848 144.888ZM36.8816 141.324V143.533H38.3309C38.666 143.553 38.9973 143.453 39.2641 143.249C39.376 143.153 39.4643 143.032 39.5224 142.896C39.5805 142.76 39.6068 142.613 39.5995 142.466C39.6185 142.309 39.6011 142.151 39.5488 142.002C39.4965 141.853 39.4106 141.719 39.2977 141.608C39.1848 141.498 39.048 141.415 38.8978 141.366C38.7477 141.317 38.5882 141.303 38.4317 141.325L36.8816 141.324ZM36.8816 140.13H38.1332C38.987 140.115 39.4138 139.776 39.4138 139.113C39.4279 138.963 39.4058 138.812 39.3494 138.673C39.2929 138.534 39.2038 138.41 39.0894 138.312C38.7825 138.125 38.4241 138.039 38.0654 138.067H36.8766L36.8816 140.13ZM53.9974 140.979C54.0134 141.708 53.8671 142.431 53.5693 143.097C53.3073 143.678 52.8783 144.168 52.3366 144.506C51.7862 144.841 51.1512 145.014 50.506 145.003C49.8648 145.013 49.2335 144.844 48.6844 144.514C48.1434 144.18 47.7121 143.696 47.4438 143.121C47.1398 142.467 46.9877 141.753 46.9986 141.032V140.622C46.9833 139.889 47.1327 139.162 47.4358 138.494C47.6996 137.913 48.1294 137.422 48.6714 137.084C49.2207 136.751 49.8534 136.58 50.496 136.592C51.1386 136.58 51.7714 136.751 52.3206 137.084C52.8627 137.422 53.2925 137.913 53.5563 138.494C53.859 139.16 54.0083 139.885 53.9935 140.616L53.9974 140.979ZM52.2827 140.608C52.3271 139.924 52.1662 139.244 51.8205 138.652C51.6769 138.437 51.4799 138.262 51.2488 138.145C51.0176 138.028 50.7601 137.973 50.501 137.984C50.2435 137.973 49.9875 138.028 49.7574 138.143C49.5273 138.259 49.3307 138.431 49.1865 138.644C48.8402 139.229 48.6772 139.903 48.7184 140.581V140.979C48.6788 141.658 48.8394 142.334 49.1805 142.923C49.3215 143.145 49.5189 143.327 49.7526 143.449C49.9863 143.571 50.2482 143.63 50.512 143.619C50.7693 143.63 51.0251 143.575 51.2544 143.458C51.4838 143.341 51.6788 143.167 51.8205 142.953C52.1622 142.365 52.3229 141.69 52.2827 141.011V140.608ZM66.6627 140.979C66.6786 141.708 66.5324 142.431 66.2345 143.097C65.9736 143.676 65.5468 144.165 65.0078 144.503C64.4575 144.839 63.8224 145.011 63.1772 145C62.536 145.01 61.9047 144.841 61.3556 144.511C60.8146 144.177 60.3833 143.693 60.115 143.118C59.811 142.464 59.6589 141.75 59.6698 141.029V140.622C59.6545 139.889 59.8039 139.162 60.107 138.494C60.3708 137.913 60.8006 137.422 61.3427 137.084C61.8919 136.751 62.5246 136.58 63.1672 136.592C63.8098 136.58 64.4426 136.751 64.9918 137.084C65.5314 137.424 65.9587 137.915 66.2205 138.495C66.5232 139.161 66.6726 139.886 66.6577 140.617L66.6627 140.979ZM64.9429 140.611C64.9873 139.927 64.8264 139.247 64.4808 138.655C64.3371 138.44 64.1402 138.265 63.909 138.148C63.6779 138.031 63.4203 137.976 63.1612 137.987C62.9038 137.976 62.6477 138.031 62.4176 138.146C62.1875 138.262 61.9909 138.434 61.8467 138.647C61.5004 139.232 61.3374 139.906 61.3786 140.584V140.982C61.339 141.661 61.4996 142.337 61.8407 142.926C61.9818 143.148 62.1791 143.33 62.4128 143.452C62.6466 143.574 62.9085 143.633 63.1722 143.622C63.4295 143.633 63.6853 143.578 63.9147 143.461C64.144 143.344 64.339 143.17 64.4808 142.956C64.8234 142.366 64.9841 141.689 64.9429 141.009V140.611ZM78.2799 138.07H75.7646V144.888H74.0678V138.07H71.5904V136.705H78.2779L78.2799 138.07ZM90.2234 142.162C90.2114 142.557 90.1184 142.945 89.9502 143.303C89.782 143.661 89.5421 143.98 89.2453 144.242C88.5895 144.771 87.7614 145.041 86.9186 145.001C86.4511 145.023 85.9846 144.939 85.5543 144.756C85.124 144.572 84.741 144.294 84.4343 143.942C83.7903 143.113 83.4688 142.08 83.529 141.033V140.536C83.5142 139.821 83.6566 139.111 83.9462 138.456C84.1985 137.888 84.6156 137.407 85.144 137.077C85.6866 136.749 86.3115 136.583 86.9456 136.596C87.777 136.557 88.5933 136.827 89.2353 137.355C89.837 137.907 90.1975 138.672 90.2394 139.486H88.5426C88.5434 139.061 88.3854 138.651 88.0994 138.336C87.7731 138.074 87.3585 137.946 86.9406 137.979C86.6953 137.963 86.45 138.01 86.2283 138.116C86.0065 138.222 85.8157 138.382 85.674 138.582C85.3512 139.153 85.2014 139.804 85.2428 140.457V141.076C85.1927 141.747 85.3309 142.419 85.642 143.016C85.7813 143.22 85.9722 143.384 86.1954 143.492C86.4186 143.6 86.6664 143.647 86.9137 143.628C87.3352 143.661 87.7536 143.534 88.0845 143.271C88.3679 142.973 88.5265 142.578 88.5276 142.167L90.2234 142.162ZM100.661 143.202H97.6944L97.1305 144.893H95.3338L98.3911 136.709H99.9592L103.033 144.893H101.237L100.661 143.202ZM98.1506 141.836H100.204L99.1716 138.772L98.1506 141.836ZM110.698 136.705L112.807 142.64L114.903 136.705H117.125V144.889H115.428V142.651L115.598 138.789L113.383 144.888H112.224L110.01 138.795L110.18 142.651V144.888H108.483V136.704L110.698 136.705ZM124.988 142.004V144.889H123.291V136.705H126.495C127.056 136.693 127.613 136.808 128.122 137.042C128.569 137.248 128.945 137.581 129.202 138C129.458 138.426 129.589 138.916 129.581 139.413C129.597 139.771 129.531 140.128 129.388 140.457C129.245 140.786 129.028 141.077 128.754 141.31C128.1 141.807 127.289 142.054 126.467 142.006L124.988 142.004ZM124.988 140.638H126.497C126.866 140.664 127.231 140.552 127.521 140.324C127.642 140.209 127.736 140.07 127.796 139.915C127.857 139.761 127.884 139.595 127.874 139.429C127.882 139.251 127.854 139.074 127.793 138.907C127.732 138.74 127.639 138.587 127.518 138.456C127.39 138.329 127.236 138.23 127.067 138.164C126.899 138.098 126.718 138.068 126.537 138.074H124.986L124.988 140.638Z" fill="black"/>
<path d="M26.1815 117.859C24.8779 119.333 23.2018 120.432 21.3276 121.042C19.094 121.819 16.7413 122.201 14.3757 122.172C11.9194 122.226 9.49327 121.624 7.34888 120.429C5.31849 119.249 3.69307 117.486 2.68563 115.37C1.54 112.932 0.963938 110.268 1.00079 107.576V105.487C0.934279 102.748 1.46591 100.027 2.55887 97.5131C3.49719 95.381 5.0636 93.5835 7.05044 92.3588C9.13114 91.1361 11.5137 90.518 13.9285 90.5744C17.5883 90.5744 20.4496 91.4441 22.5124 93.1834C24.6846 95.1388 26.0012 97.8649 26.1795 100.777H19.9911C19.8538 99.305 19.1878 97.9324 18.1157 96.9113C16.9756 96.0386 15.5585 95.6036 14.1232 95.6859C13.1602 95.6362 12.2006 95.8334 11.336 96.2586C10.4713 96.6839 9.73054 97.323 9.18443 98.1149C8.05323 99.7342 7.48097 102.142 7.46766 105.339V107.304C7.46766 110.528 8.08249 112.964 9.31219 114.612C9.94007 115.435 10.7617 116.091 11.7043 116.522C12.647 116.953 13.6817 117.146 14.717 117.084C17.1052 117.084 18.808 116.577 19.8255 115.563V110.262H14.0363V105.594H26.1815V117.859ZM29.9744 110.106C29.9365 108.012 30.3864 105.936 31.2889 104.044C32.1122 102.327 33.4294 100.894 35.0728 99.9252C36.8152 98.9286 38.7975 98.4247 40.8061 98.468C42.1946 98.4137 43.5801 98.6361 44.8813 99.1222C46.1825 99.6083 47.3733 100.348 48.3838 101.299C50.4157 103.354 51.5865 106.103 51.6587 108.987L51.7006 110.55C51.8508 113.637 50.7947 116.662 48.7542 118.989C47.7432 120.054 46.5136 120.89 45.1493 121.439C43.785 121.988 42.3179 122.238 40.848 122.172C39.3778 122.238 37.9103 121.99 36.5445 121.444C35.1788 120.897 33.9465 120.065 32.9309 119.004C30.9599 116.892 29.9744 114.019 29.9744 110.386V110.106ZM36.0999 110.55C35.9882 112.294 36.4175 114.031 37.3296 115.523C37.7224 116.083 38.2511 116.535 38.8663 116.836C39.4816 117.137 40.1633 117.278 40.848 117.245C41.5237 117.272 42.1954 117.13 42.8024 116.833C43.4094 116.536 43.9325 116.093 44.3245 115.544C45.1582 114.41 45.5751 112.597 45.5751 110.105C45.6797 108.369 45.2429 106.643 44.3245 105.163C43.9347 104.598 43.4075 104.141 42.7922 103.834C42.1768 103.527 41.4935 103.381 40.8061 103.409C40.1257 103.381 39.4492 103.526 38.8409 103.831C38.2325 104.136 37.7123 104.591 37.3296 105.152C36.3908 106.79 35.9637 108.67 36.1029 110.551L36.0999 110.55ZM71.8797 113.676C71.9086 113.148 71.8078 112.622 71.5862 112.141C71.3647 111.661 71.0289 111.242 70.6081 110.92C69.1932 110.02 67.65 109.337 66.0307 108.896C64.2277 108.348 62.4761 107.645 60.7956 106.794C57.2908 104.907 55.5384 102.365 55.5384 99.1692C55.5171 97.5748 56.0112 96.016 56.9478 94.7231C57.983 93.3471 59.386 92.2893 60.9962 91.6705C62.878 90.9166 64.892 90.5446 66.92 90.5764C68.947 90.5407 70.9571 90.9481 72.809 91.77C74.4416 92.4869 75.8352 93.6528 76.8264 95.1309C77.7857 96.6001 78.2836 98.3208 78.2568 100.073H71.8977C71.9321 99.4619 71.8302 98.8505 71.5993 98.2829C71.3684 97.7154 71.0142 97.2059 70.5622 96.791C69.4998 95.9518 68.1633 95.5341 66.8102 95.6183C65.5269 95.5408 64.2535 95.8858 63.1861 96.6C62.7751 96.8935 62.4421 97.2824 62.216 97.733C61.9899 98.1836 61.8775 98.6824 61.8885 99.1861C61.9009 99.7 62.0471 100.202 62.3127 100.642C62.5783 101.083 62.9543 101.447 63.4037 101.7C64.7928 102.541 66.2951 103.181 67.8653 103.6C71.4825 104.685 74.1179 106.029 75.7714 107.635C76.5806 108.408 77.2191 109.341 77.6462 110.374C78.0733 111.406 78.2795 112.517 78.2518 113.634C78.3005 114.846 78.0495 116.051 77.5209 117.144C76.9923 118.236 76.2023 119.183 75.2205 119.9C72.8224 121.525 69.9559 122.323 67.0598 122.171C64.8293 122.2 62.6179 121.757 60.572 120.872C58.7766 120.13 57.2295 118.896 56.1103 117.313C55.073 115.764 54.5366 113.936 54.5732 112.074H60.9533C60.9533 115.468 62.9881 117.165 67.0578 117.165C68.3052 117.237 69.5438 116.915 70.5971 116.245C71.0101 115.959 71.3441 115.574 71.5684 115.125C71.7927 114.676 71.9001 114.178 71.8807 113.677L71.8797 113.676ZM89.4937 93.2719V98.8907H93.4153V103.367H89.4937V114.773C89.4345 115.417 89.6072 116.061 89.9808 116.59C90.2376 116.803 90.5356 116.962 90.8564 117.057C91.1773 117.151 91.5142 117.179 91.8463 117.139C92.4501 117.145 93.0532 117.095 93.6479 116.99V121.617C92.4459 121.983 91.1957 122.168 89.9388 122.166C85.6429 122.166 83.4527 120.004 83.3682 115.682V103.369H80.0204V98.8927H83.3692V93.2739L89.4937 93.2719ZM110.118 121.745C109.805 121.099 109.598 120.407 109.503 119.696C108.779 120.506 107.886 121.148 106.885 121.575C105.885 122.002 104.802 122.205 103.714 122.168C101.672 122.242 99.677 121.548 98.1245 120.224C97.4127 119.623 96.8445 118.871 96.4614 118.023C96.0782 117.175 95.8897 116.253 95.9096 115.323C95.8554 114.243 96.0744 113.166 96.5467 112.192C97.019 111.217 97.7294 110.377 98.6126 109.747C100.415 108.452 103.018 107.797 106.424 107.783H109.243V106.473C109.289 105.557 108.999 104.656 108.426 103.939C108.094 103.6 107.691 103.339 107.246 103.175C106.8 103.01 106.324 102.947 105.851 102.988C104.979 102.937 104.118 103.199 103.424 103.727C103.132 103.976 102.9 104.288 102.748 104.639C102.596 104.991 102.526 105.372 102.544 105.755H96.4187C96.4182 104.428 96.8497 103.136 97.6484 102.075C98.5421 100.891 99.7445 99.9739 101.125 99.4238C102.723 98.7637 104.44 98.4367 106.169 98.463C108.597 98.3327 110.989 99.0872 112.899 100.586C113.739 101.329 114.4 102.251 114.832 103.285C115.264 104.318 115.456 105.436 115.394 106.554V116.46C115.312 118.149 115.624 119.834 116.305 121.382V121.741L110.118 121.745ZM105.052 117.5C105.923 117.508 106.783 117.301 107.554 116.898C108.27 116.542 108.862 115.979 109.251 115.282V111.353H106.962C103.896 111.353 102.263 112.409 102.065 114.521L102.044 114.88C102.034 115.233 102.101 115.583 102.24 115.908C102.379 116.232 102.587 116.523 102.85 116.76C103.461 117.279 104.25 117.544 105.052 117.5ZM129.64 117.246C130.643 117.29 131.626 116.959 132.396 116.317C132.746 116.007 133.025 115.627 133.215 115.2C133.404 114.774 133.499 114.312 133.494 113.845H139.238C139.235 115.357 138.794 116.835 137.967 118.102C137.125 119.397 135.94 120.435 134.543 121.101C133.047 121.823 131.404 122.188 129.742 122.168C128.3 122.24 126.859 121.999 125.519 121.461C124.18 120.923 122.974 120.101 121.985 119.052C120.093 116.976 119.147 114.106 119.147 110.445V110.047C118.989 106.984 119.996 103.975 121.966 101.619C122.945 100.561 124.145 99.7304 125.482 99.1865C126.819 98.6426 128.26 98.3987 129.702 98.472C132.234 98.3504 134.713 99.2268 136.601 100.912C137.472 101.75 138.157 102.761 138.612 103.879C139.067 104.997 139.281 106.198 139.242 107.404H133.498C133.517 106.338 133.124 105.305 132.4 104.519C132.039 104.149 131.603 103.859 131.121 103.668C130.64 103.477 130.123 103.389 129.605 103.41C128.978 103.374 128.353 103.497 127.787 103.769C127.221 104.041 126.734 104.452 126.372 104.963C125.644 105.998 125.28 107.678 125.28 110.001V110.635C125.28 112.986 125.641 114.677 126.361 115.707C126.732 116.221 127.227 116.632 127.8 116.902C128.374 117.172 129.007 117.292 129.64 117.251V117.246ZM151.07 112.576L148.865 114.775V121.746H142.74V89.3012H148.865V107.277L150.052 105.756L155.923 98.8927H163.278L154.994 108.419L164.002 121.747H156.963L151.07 112.576Z" fill="black"/>
</svg>
