<svg width="30" height="30" viewBox="0 0 30 30" fill="none" xmlns="http://www.w3.org/2000/svg">
<path d="M3.51562 15.9375H0V30H19.4531V26.4844H30V0H3.51562V15.9375ZM12.3633 17.6953V19.4531H1.75781V17.6953H12.3633ZM17.6953 19.4531H14.1211V17.6953H17.6953V19.4531ZM1.75781 28.2422V21.2109H17.6953V28.2422H1.75781ZM19.4531 24.7266V15.9375H5.27344V5.27344H28.2422V24.7266H19.4531ZM28.2422 3.51562H22.9688V1.75781H28.2422V3.51562ZM21.2109 1.75781V3.51562H5.27344V1.75781H21.2109Z" fill="black"/>
<path d="M21.2109 10.6641H23.4835L20.5895 13.5583L21.8324 14.8011L24.7266 11.9071V14.1797H26.4844V8.90625H21.2109V10.6641Z" fill="black"/>
</svg>
