<svg width="40" height="40" viewBox="0 0 40 40" fill="none" xmlns="http://www.w3.org/2000/svg">
<path d="M10.5471 10.3019C11.1932 10.3019 11.7189 9.75805 11.7189 9.0896C11.7189 8.42114 11.1932 7.87731 10.5471 7.87731C10.0748 7.87731 9.65073 8.1681 9.46683 8.6181L7.30817 7.67357C7.85988 6.32446 9.13113 5.45274 10.5471 5.45274C12.4856 5.45274 14.0627 7.08424 14.0627 9.0896C14.0627 11.095 12.4856 12.7265 10.5471 12.7265C9.90089 12.7265 9.37519 13.2703 9.37519 13.9387C9.37519 14.6072 9.90089 15.151 10.5471 15.151C11.0193 15.151 11.4434 14.8602 11.6273 14.4102L13.7859 15.3548C13.2342 16.7039 11.963 17.5756 10.5471 17.5756C8.60855 17.5756 7.03145 15.9441 7.03145 13.9387C7.03145 11.9334 8.60855 10.3019 10.5471 10.3019Z" fill="black"/>
<path d="M0.000244141 11.5142C0.000244141 5.49808 4.73154 0.603607 10.5471 0.603607C16.3626 0.603607 21.0939 5.49808 21.0939 11.5142C21.0939 11.9239 21.0711 12.3283 21.0284 12.7265H25.8595C27.5052 12.7265 29.0856 13.0716 30.5667 13.7533C31.7687 13.0797 33.0961 12.7265 34.4429 12.7265H38.0322L36.0257 18.9538C36.2261 19.3144 36.3989 19.66 36.5487 20.0002H40V29.6984H36.5552C35.6396 31.8519 34.1182 33.7099 32.2062 34.9904C31.1672 35.6862 30.5469 36.8647 30.5469 38.1428V39.3967H23.5157V36.9721H16.4845V39.3967H9.45331V38.1844C9.45331 36.1556 8.75941 34.182 7.49942 32.6273C4.75771 29.2445 4.12983 24.7575 5.37724 21.0211C2.17039 19.1474 0.000244141 15.5883 0.000244141 11.5142ZM9.29542 31.0696C10.6562 32.7487 11.5013 34.8093 11.7324 36.9721H14.1408V34.2821C14.1492 34.2832 16.4025 34.5476 16.4845 34.5476H25.8595V36.9721H28.3102C28.6134 35.3345 29.5464 33.8833 30.9325 32.9551C34.1386 30.8079 34.7547 27.6283 34.9333 27.2739H37.6563V22.4247H34.9334L34.6563 21.6186C34.2704 20.4953 33.654 19.6053 33.4577 19.256L34.7804 15.151H34.4429C32.315 15.151 31.0032 16.3641 30.694 16.5254C30.3141 16.3692 28.627 15.151 25.8595 15.151H20.4906C19.0395 19.3843 15.1304 22.4247 10.5471 22.4247C9.50331 22.4247 8.49473 22.2663 7.54192 21.9728C6.61216 24.9361 7.16294 28.4384 9.29542 31.0696ZM10.5471 20.0002C15.0702 20.0002 18.7501 16.1933 18.7501 11.5142C18.7501 6.83499 15.0702 3.02818 10.5471 3.02818C6.02388 3.02818 2.34398 6.83499 2.34398 11.5142C2.34398 16.1933 6.02388 20.0002 10.5471 20.0002Z" fill="black"/>
<path d="M30.5469 20.0002H28.2032V22.4247H30.5469V20.0002Z" fill="black"/>
</svg>
