<?xml version="1.0"?>
<svg xmlns="http://www.w3.org/2000/svg" id="Layer_1" data-name="Layer 1" viewBox="0 0 512 512" width="800" height="800"><path d="M440.143,137H312V97.293c0-27.552-3.588-38.133-10.407-57.342-1.613-4.543-3.357-9.692-5.358-15.694a34.489,34.489,0,0,0-65.459,0c-2,6-3.708,11.151-5.32,15.694C218.636,59.16,215,69.741,215,97.293V137H71.857A33.6,33.6,0,0,0,38,170.557V411.422A33.616,33.616,0,0,0,71.857,445H195v54H170.2a6,6,0,0,0,0,12H346.824a6,6,0,1,0,0-12H317V445H440.143A33.616,33.616,0,0,0,474,411.422V170.557A33.6,33.6,0,0,0,440.143,137ZM312,235.938V177.864c6,4.163,12.191,6.655,19.444,6.655A36.568,36.568,0,0,1,368,220.87V238H312ZM312,250h56v6H312Zm56,18v6h-9v-6Zm-56,0h9v6h-9ZM227,153.279V97.293c0-25.485,2.988-34.21,9.775-53.327,1.631-4.594,3.424-9.8,5.461-15.914,3.787-11.36,13.5-15.408,21.35-15.408s17.577,4.048,21.364,15.408c2.037,6.112,3.71,11.32,5.341,15.914C297.078,63.083,300,71.808,300,97.293V210H227ZM300,222v16H284V222Zm34.578,123.463a6,6,0,0,0,6-6,15.385,15.385,0,0,1,30.7-1.417,36.125,36.125,0,0,0-5.168,4.947,6,6,0,1,0,9.126,7.791A24.013,24.013,0,0,1,413.271,380H96.963A23.2,23.2,0,0,1,94.5,369.388,24.006,24.006,0,0,1,138.956,356.8a6,6,0,0,0,10.219-6.3,36.6,36.6,0,0,0-3.578-4.84,19.777,19.777,0,0,1,19.188-17.738,19.212,19.212,0,0,1,13.878,5.624,20.619,20.619,0,0,1,6.171,14.618,22.212,22.212,0,0,0,22.187,22.186,6,6,0,0,0,0-12,10.2,10.2,0,0,1-10.187-10.187,32.461,32.461,0,0,0-3.291-14.163A7.781,7.781,0,0,1,209,335.4v3.209a23,23,0,1,0,46,0V250h17v88.608a23,23,0,1,0,46,0V327.271a8.277,8.277,0,0,1,15.7-3.706,27.235,27.235,0,0,0-5.121,15.9A6,6,0,0,0,334.578,345.463ZM255,238V222h17v16Zm-28-2.062V222h16v16H227ZM50,170.557A21.587,21.587,0,0,1,71.857,149H215v4.279a19.438,19.438,0,0,1-19.445,19.24A48.581,48.581,0,0,0,147,220.87v58.7A6.542,6.542,0,0,0,153.189,286h20.534A6.619,6.619,0,0,0,180,279.573V268h14v11.573A6.592,6.592,0,0,0,200.246,286H220.78a6.569,6.569,0,0,0,6.22-6.427V250h16v88.608a11,11,0,1,1-22,0V335.4a19.769,19.769,0,0,0-35.642-11.917,31.039,31.039,0,0,0-20.828-7.552,31.837,31.837,0,0,0-29.346,21.516A36.017,36.017,0,0,0,82.5,369.388,34.308,34.308,0,0,0,84.087,380H50ZM159,256v-6h56v6Zm56,12v6h-9v-6Zm-47,0v6h-9v-6Zm-9-30V220.87a36.567,36.567,0,0,1,36.555-36.351c7.254,0,13.445-2.492,19.445-6.655V238ZM305,499H207V445h98Zm157-87.578A21.6,21.6,0,0,1,440.143,433H71.857A21.6,21.6,0,0,1,50,411.422V392H462ZM462,380H426.833a35.115,35.115,0,0,0,2.667-13.612,36.009,36.009,0,0,0-47.154-34.248,27.371,27.371,0,0,0-39.589-16.662A20.242,20.242,0,0,0,306,327.271v11.337a11,11,0,1,1-22,0V250h16v29.573A6.674,6.674,0,0,0,306.337,286h20.534A6.489,6.489,0,0,0,333,279.573V268h14v11.573A6.725,6.725,0,0,0,353.394,286h20.534c3.313,0,6.072-3.113,6.072-6.427v-58.7a48.581,48.581,0,0,0-48.556-48.351A19.438,19.438,0,0,1,312,153.279V149H440.143A21.587,21.587,0,0,1,462,170.557Z"/><circle cx="401" cy="296.856" r="6.5"/><path d="M400,285.356a6,6,0,0,0,6-6v-41a6,6,0,0,0-12,0v41A6,6,0,0,0,400,285.356Z"/><circle cx="421" cy="266.856" r="6.5"/><path d="M420,189.124a6,6,0,0,0,6-6V172.356a6,6,0,0,0-12,0v10.768A6,6,0,0,0,420,189.124Z"/><path d="M420,255.356a6,6,0,0,0,6-6v-43.78a6,6,0,0,0-12,0v43.78A6,6,0,0,0,420,255.356Z"/><circle cx="106" cy="300.856" r="6.5"/><path d="M105,289.356a6,6,0,0,0,6-6v-41a6,6,0,0,0-12,0v41A6,6,0,0,0,105,289.356Z"/><circle cx="126" cy="270.856" r="6.5"/><path d="M125,193.124a6,6,0,0,0,6-6V176.356a6,6,0,0,0-12,0v10.768A6,6,0,0,0,125,193.124Z"/><path d="M125,259.356a6,6,0,0,0,6-6v-43.78a6,6,0,0,0-12,0v43.78A6,6,0,0,0,125,259.356Z"/><circle cx="348" cy="361.356" r="7"/><circle cx="228" cy="311.356" r="7"/><circle cx="168" cy="351.356" r="7"/><path d="M263.559,51.979A34.061,34.061,0,0,0,230.8,75.592a6,6,0,0,0,11.384,3.8c3.787-11.361,13.526-15.408,21.378-15.408s17.59,4.047,21.377,15.408a6,6,0,0,0,11.384-3.8A34.06,34.06,0,0,0,263.559,51.979Z"/></svg>
